<?xml version="1.0" standalone="no"?>
<!DOCTYPE svg PUBLIC "-//W3C//DTD SVG 20010904//EN"
 "http://www.w3.org/TR/2001/REC-SVG-20010904/DTD/svg10.dtd">
<svg version="1.0" xmlns="http://www.w3.org/2000/svg"
 width="732.000000pt" height="732.000000pt" viewBox="0 0 732.000000 732.000000"
 preserveAspectRatio="xMidYMid meet">
<metadata>
Created by potrace 1.14, written by Peter Selinger 2001-2017
</metadata>
<g transform="translate(0.000000,732.000000) scale(0.100000,-0.100000)"
fill="#000000" stroke="none">
<path d="M1620 7179 c0 -9 119 -305 177 -439 19 -43 19 -44 88 -215 32 -77 64
-156 72 -175 21 -48 34 -81 45 -110 6 -14 16 -38 23 -55 7 -16 46 -111 85
-210 73 -182 90 -223 116 -283 8 -19 30 -75 50 -125 19 -51 41 -105 49 -122 8
-16 74 -176 145 -355 72 -179 135 -334 140 -345 5 -11 21 -49 35 -85 14 -36
30 -74 35 -85 5 -11 35 -83 66 -160 108 -270 165 -410 174 -430 5 -11 21 -49
35 -85 15 -36 32 -78 39 -95 7 -16 28 -68 47 -115 18 -47 39 -96 46 -109 6
-14 10 -28 7 -33 -3 -4 0 -8 5 -8 6 0 11 -7 11 -16 0 -8 5 -25 12 -37 7 -12
13 -26 14 -32 2 -9 141 -349 163 -400 5 -11 23 -56 41 -100 18 -44 38 -93 45
-110 8 -16 41 -100 75 -185 58 -147 69 -172 105 -254 8 -19 15 -37 15 -41 0
-3 8 -25 19 -48 17 -40 32 -76 36 -87 1 -3 6 -16 12 -30 6 -14 17 -40 25 -59
l14 -35 58 140 c33 76 65 153 72 169 7 17 74 179 150 360 75 182 142 344 150
360 7 17 29 71 50 120 20 50 44 108 54 130 9 22 36 87 60 145 23 58 50 123 60
145 10 22 28 65 40 95 12 30 28 69 35 85 7 17 30 71 50 120 50 122 143 344
157 375 6 14 12 27 13 30 3 18 40 106 46 110 3 3 12 23 19 45 7 22 23 63 35
90 13 28 35 82 50 120 15 39 31 74 36 79 5 6 9 15 9 22 0 6 12 38 27 70 14 33
28 64 29 69 1 6 39 97 83 203 45 106 81 197 81 202 0 6 5 10 12 10 6 0 8 3 5
7 -4 3 -2 12 4 20 6 7 8 13 5 13 -4 0 0 12 8 28 14 26 31 65 189 447 41 99 80
194 87 210 7 17 19 44 26 61 7 17 31 73 52 125 21 52 68 166 105 254 36 88
108 264 160 390 l95 230 -382 3 c-209 1 -386 0 -392 -2 -7 -3 -24 -37 -39 -78
-15 -40 -36 -92 -46 -115 -11 -23 -19 -46 -19 -51 0 -5 -6 -22 -14 -38 -8 -16
-35 -83 -61 -149 -26 -66 -51 -129 -55 -140 -5 -11 -77 -191 -161 -400 -83
-209 -157 -393 -164 -410 -7 -16 -41 -100 -75 -185 -35 -85 -77 -191 -96 -235
-18 -44 -68 -170 -112 -280 -44 -110 -121 -301 -171 -425 -51 -124 -140 -345
-199 -492 -59 -147 -109 -268 -112 -268 -3 0 -14 21 -25 48 -10 26 -17 47 -15
47 2 0 -3 14 -12 30 -10 17 -51 118 -93 225 -43 107 -83 209 -90 225 -7 17
-72 181 -145 365 -72 184 -136 346 -142 360 -6 14 -17 39 -24 55 -7 17 -25 62
-40 100 -14 39 -32 84 -39 100 -7 17 -25 62 -39 100 -15 39 -36 89 -47 112
-10 24 -19 49 -19 56 0 7 -4 17 -8 23 -4 5 -18 36 -31 69 -30 79 -36 94 -51
130 -8 17 -14 35 -16 40 -1 6 -43 111 -92 235 -50 124 -134 335 -187 470 -53
135 -100 254 -105 265 -20 48 -43 104 -63 155 l-22 55 -388 3 c-278 2 -387 -1
-387 -9z"/>
<path d="M2040 5360 c-1 -8 -3 -22 -5 -30 -6 -24 -26 -123 -30 -150 -3 -14 -9
-47 -15 -75 -6 -27 -13 -63 -16 -80 -2 -16 -7 -37 -9 -45 -2 -8 -7 -28 -10
-45 -5 -29 -8 -48 -20 -105 -2 -14 -7 -41 -10 -60 -3 -19 -8 -42 -10 -50 -2
-8 -7 -31 -10 -50 -3 -19 -8 -42 -10 -50 -2 -8 -7 -31 -10 -50 -5 -35 -11 -64
-21 -110 -3 -14 -7 -36 -10 -50 -2 -14 -7 -36 -9 -50 -11 -52 -15 -76 -20
-100 -3 -14 -19 -95 -36 -180 -17 -85 -32 -162 -33 -170 -1 -8 -5 -31 -9 -50
-4 -19 -9 -46 -11 -60 -3 -14 -14 -70 -26 -125 -11 -55 -22 -113 -25 -130 -2
-16 -6 -37 -9 -45 -3 -8 -7 -31 -10 -50 -3 -19 -10 -60 -16 -90 -6 -30 -13
-66 -16 -80 -2 -14 -7 -36 -9 -50 -10 -49 -15 -75 -20 -100 -3 -14 -7 -36 -10
-50 -3 -14 -8 -38 -10 -55 -3 -16 -8 -37 -10 -45 -2 -8 -7 -31 -10 -50 -5 -32
-17 -94 -21 -112 -1 -5 -2 -9 -4 -10 -1 -2 -3 -12 -4 -23 -4 -28 -15 -85 -21
-115 -3 -14 -7 -36 -10 -50 -2 -14 -9 -47 -15 -75 -6 -27 -13 -63 -15 -80 -1
-16 -5 -37 -9 -45 -4 -13 -10 -41 -21 -115 -2 -11 -8 -41 -14 -68 -6 -26 -14
-64 -17 -85 -3 -20 -10 -57 -16 -82 -5 -25 -12 -55 -14 -67 -2 -13 -6 -35 -9
-50 -6 -27 -9 -43 -19 -96 -2 -12 -7 -40 -11 -62 -3 -22 -8 -48 -11 -57 -8
-27 -15 -61 -20 -98 -2 -19 -7 -43 -10 -52 -3 -10 -7 -30 -10 -45 -2 -16 -11
-62 -19 -103 -17 -84 -17 -83 -39 -200 -9 -47 -18 -96 -21 -110 -3 -14 -7 -36
-10 -50 -3 -14 -7 -36 -10 -50 -3 -14 -7 -36 -10 -50 -2 -14 -9 -50 -15 -80
-6 -30 -13 -66 -16 -80 -5 -28 -22 -113 -29 -150 -3 -14 -8 -36 -10 -50 -4
-24 -25 -135 -30 -155 -8 -36 -19 -93 -21 -110 -1 -11 -3 -20 -4 -20 -1 0 -4
-11 -6 -25 l-4 -25 337 2 c186 1 354 2 375 3 36 0 36 0 43 53 4 28 9 61 11 72
7 35 13 69 20 110 3 22 7 45 9 50 3 16 15 78 20 110 5 31 32 184 39 220 2 11
6 36 10 55 3 19 8 45 10 56 2 12 7 37 10 55 3 19 8 45 11 59 2 13 7 40 10 60
3 20 7 47 10 60 11 57 27 147 30 170 2 14 4 25 5 25 1 0 3 9 4 20 2 11 7 40
11 65 5 25 9 52 10 60 1 8 5 33 10 55 9 45 11 55 26 140 5 33 12 71 15 85 3
14 7 36 9 50 2 14 13 77 24 140 11 63 23 129 26 145 2 17 7 41 10 55 2 13 7
42 10 65 3 22 8 47 10 55 2 8 7 31 10 50 3 19 10 60 16 90 6 30 12 64 14 75 2
11 6 38 10 59 3 21 7 48 10 60 6 25 14 71 20 106 2 14 15 90 29 169 23 128 33
169 37 148 3 -15 6 -24 27 -69 12 -27 31 -68 42 -93 11 -25 30 -66 42 -92 12
-27 22 -50 23 -53 5 -16 218 -497 243 -550 9 -19 17 -37 17 -40 1 -3 8 -21 17
-40 8 -19 25 -57 37 -85 12 -27 29 -63 36 -80 36 -77 75 -166 75 -170 0 -2 13
-32 30 -67 23 -49 216 -485 317 -718 9 -19 26 -57 38 -85 13 -27 55 -124 95
-215 40 -91 87 -198 106 -238 19 -41 34 -75 34 -78 0 -2 12 -29 26 -61 34 -75
62 -139 104 -235 19 -43 36 -78 40 -78 3 0 14 19 25 42 10 24 41 93 70 153 28
61 55 123 59 138 3 15 11 27 16 27 6 0 10 5 10 11 0 14 83 204 153 349 12 25
22 47 23 50 0 3 12 30 26 60 14 30 35 78 48 105 13 28 43 92 67 144 23 51 43
100 43 107 0 8 5 14 10 14 6 0 10 4 10 10 0 8 135 312 225 505 18 39 42 93 55
120 12 28 33 75 47 105 14 30 31 69 38 85 8 17 30 66 50 110 21 44 58 125 83
180 24 55 56 125 70 155 14 30 26 57 27 60 1 3 13 30 27 60 96 208 118 258
118 269 0 6 5 11 10 11 6 0 10 6 10 14 0 8 14 41 30 74 17 34 30 66 30 71 0
12 20 15 21 4 0 -5 2 -16 4 -25 2 -9 6 -35 9 -58 3 -22 12 -80 20 -128 19
-109 26 -158 32 -202 2 -19 9 -60 14 -90 5 -30 12 -73 15 -95 3 -22 7 -47 10
-55 5 -18 13 -74 20 -138 3 -26 8 -54 11 -63 2 -9 7 -34 9 -55 3 -22 9 -64 15
-94 5 -30 11 -71 14 -90 3 -19 8 -46 10 -60 6 -33 16 -97 22 -139 2 -19 6 -46
9 -60 8 -41 13 -71 25 -151 6 -41 14 -86 16 -100 5 -29 23 -142 29 -185 5 -30
31 -193 41 -250 3 -16 7 -41 9 -55 2 -14 6 -39 9 -56 3 -17 8 -46 10 -65 6
-39 15 -102 22 -139 5 -33 31 -194 39 -245 3 -22 8 -51 10 -65 2 -14 9 -56 15
-95 6 -38 13 -71 15 -73 2 -3 167 -5 365 -6 l361 -1 -5 38 c-5 37 -32 190 -40
233 -2 12 -7 37 -10 55 -3 19 -8 44 -10 55 -2 12 -7 39 -10 60 -4 22 -11 66
-17 99 -7 33 -13 69 -15 80 -2 11 -14 83 -28 160 -45 252 -65 369 -71 410 -2
11 -4 20 -5 20 -2 0 -8 31 -15 80 -3 22 -8 51 -11 65 -5 26 -11 55 -19 105 -3
17 -8 41 -10 55 -3 14 -8 39 -10 55 -3 25 -13 84 -40 235 -3 14 -7 36 -10 50
-3 14 -8 41 -10 60 -3 19 -9 57 -15 83 -5 26 -12 69 -16 95 -3 26 -8 50 -10
53 -1 3 -6 28 -9 55 -3 27 -10 63 -15 79 -4 17 -14 68 -21 115 -7 47 -14 87
-14 90 -1 3 -5 25 -9 50 -5 25 -10 54 -12 65 -11 56 -16 82 -19 100 -3 22 -7
46 -36 205 -10 58 -21 123 -24 145 -4 22 -8 47 -10 55 -3 8 -7 32 -11 54 -3
21 -8 48 -10 60 -2 11 -11 59 -19 106 -8 47 -17 97 -20 112 -10 53 -15 83 -21
118 -3 19 -7 46 -10 60 -3 14 -9 52 -15 85 -5 33 -12 71 -15 85 -3 14 -7 36
-9 50 -2 14 -11 66 -20 115 -9 50 -18 101 -20 115 -3 14 -7 36 -10 50 -3 14
-7 39 -9 55 -3 17 -7 42 -10 55 -7 29 -14 71 -21 120 -3 19 -8 46 -11 60 -3
13 -7 38 -10 55 -2 16 -6 41 -9 55 -3 14 -7 36 -10 50 -2 14 -11 66 -20 115
-9 50 -18 99 -19 110 -31 177 -46 257 -52 275 -3 8 -23 -26 -48 -80 -46 -102
-69 -153 -122 -268 -19 -41 -34 -75 -34 -77 0 -2 -20 -46 -44 -97 -24 -51 -61
-133 -84 -183 -22 -49 -59 -130 -81 -178 -23 -49 -41 -90 -41 -91 0 -2 -20
-46 -43 -97 -53 -114 -82 -176 -114 -249 -14 -30 -35 -77 -48 -105 -13 -27
-67 -147 -120 -265 -54 -118 -113 -248 -131 -288 -30 -64 -45 -97 -99 -217 -7
-16 -36 -79 -64 -139 -28 -59 -51 -110 -51 -111 0 -3 -43 -97 -95 -210 -13
-27 -44 -97 -70 -155 -26 -58 -65 -143 -86 -188 -21 -46 -39 -86 -39 -87 0 -2
-18 -43 -41 -92 -23 -48 -60 -131 -84 -183 -131 -290 -126 -280 -136 -280 -5
0 -9 5 -9 11 0 5 -8 29 -19 52 -10 23 -29 65 -41 92 -63 138 -190 427 -190
430 0 2 -20 46 -45 99 -25 53 -45 99 -45 101 0 2 -15 36 -34 77 -29 64 -83
184 -122 273 -7 17 -31 70 -53 118 -23 49 -41 91 -41 93 0 2 -11 27 -24 56
-27 61 -57 128 -87 196 -11 26 -29 65 -39 87 -10 22 -28 63 -40 90 -34 77 -60
135 -86 193 -13 29 -24 54 -24 56 0 2 -14 34 -32 72 -17 38 -32 71 -33 74 0 3
-13 31 -28 63 -15 32 -27 59 -27 61 0 3 -15 37 -34 78 -36 76 -68 149 -71 158
0 3 -11 28 -24 55 -12 28 -45 102 -73 165 -28 63 -66 148 -84 188 -19 40 -34
74 -34 76 0 3 -15 37 -34 78 -37 81 -68 150 -71 158 -1 3 -8 21 -17 40 -32 73
-111 249 -156 350 -6 15 -11 19 -12 10z"/>
</g>
</svg>
