<svg width="37" height="36" viewBox="0 0 37 36" fill="none" xmlns="http://www.w3.org/2000/svg">
<path fill-rule="evenodd" clip-rule="evenodd" d="M34.9493 3.18198C35.5351 2.59619 35.5351 1.64645 34.9493 1.06066C34.3635 0.474874 33.4138 0.474874 32.828 1.06066L18.4956 15.393L4.31754 1.21492C3.73175 0.629129 2.782 0.629129 2.19622 1.21492C1.61043 1.8007 1.61043 2.75045 2.19622 3.33624L16.3743 17.5143L1.06044 32.8282C0.474656 33.414 0.474656 34.3638 1.06044 34.9496C1.64623 35.5353 2.59598 35.5353 3.18176 34.9496L18.4956 19.6357L33.9638 35.1038C34.5496 35.6896 35.4993 35.6896 36.0851 35.1038C36.6709 34.518 36.6709 33.5683 36.0851 32.9825L20.617 17.5143L34.9493 3.18198Z" fill="#D8DEFF"/>
</svg>
