<svg width="325" height="449" viewBox="0 0 325 449" fill="none" xmlns="http://www.w3.org/2000/svg">
<g filter="url(#filter0_d_85_301)">
<rect x="29.5" y="29.5" width="266" height="390" rx="10" fill="#F9FEFF"/>
<circle cx="162.5" cy="214.5" r="51" stroke="black" stroke-width="8"/>
<path d="M187.313 210.76C190.701 213.15 190.701 218.174 187.313 220.564L156.66 242.195C152.686 244.999 147.201 242.157 147.201 237.292L147.201 194.031C147.201 189.167 152.686 186.324 156.66 189.129L187.313 210.76Z" fill="black"/>
<line x1="55" y1="370" x2="269" y2="370" stroke="black" stroke-width="3" stroke-linecap="round"/>
<g filter="url(#filter1_d_85_301)">
<circle cx="87.5" cy="369.5" r="10" fill="#F9FEFF"/>
</g>
<path fill-rule="evenodd" clip-rule="evenodd" d="M244.661 326.5H238.5C237.395 326.5 236.5 327.395 236.5 328.5V331.694L238.5 331.694L238.5 328.5H244.661V326.5ZM263.435 331.694V328.5H258.016V326.5H263.435C264.54 326.5 265.435 327.395 265.435 328.5V331.694H263.435ZM258.016 347.5H263.435V345.048H265.435V347.5C265.435 348.605 264.54 349.5 263.435 349.5H258.016V347.5ZM238.5 345.048V347.5H244.661V349.5H238.5C237.395 349.5 236.5 348.605 236.5 347.5V345.048H238.5Z" fill="black"/>
</g>
<defs>
<filter id="filter0_d_85_301" x="0.5" y="0.5" width="324" height="448" filterUnits="userSpaceOnUse" color-interpolation-filters="sRGB">
<feFlood flood-opacity="0" result="BackgroundImageFix"/>
<feColorMatrix in="SourceAlpha" type="matrix" values="0 0 0 0 0 0 0 0 0 0 0 0 0 0 0 0 0 0 127 0" result="hardAlpha"/>
<feOffset/>
<feGaussianBlur stdDeviation="14.5"/>
<feComposite in2="hardAlpha" operator="out"/>
<feColorMatrix type="matrix" values="0 0 0 0 0 0 0 0 0 0 0 0 0 0 0 0 0 0 0.42 0"/>
<feBlend mode="normal" in2="BackgroundImageFix" result="effect1_dropShadow_85_301"/>
<feBlend mode="normal" in="SourceGraphic" in2="effect1_dropShadow_85_301" result="shape"/>
</filter>
<filter id="filter1_d_85_301" x="71.5" y="354.5" width="32" height="32" filterUnits="userSpaceOnUse" color-interpolation-filters="sRGB">
<feFlood flood-opacity="0" result="BackgroundImageFix"/>
<feColorMatrix in="SourceAlpha" type="matrix" values="0 0 0 0 0 0 0 0 0 0 0 0 0 0 0 0 0 0 127 0" result="hardAlpha"/>
<feOffset dy="1"/>
<feGaussianBlur stdDeviation="3"/>
<feComposite in2="hardAlpha" operator="out"/>
<feColorMatrix type="matrix" values="0 0 0 0 0 0 0 0 0 0 0 0 0 0 0 0 0 0 0.25 0"/>
<feBlend mode="normal" in2="BackgroundImageFix" result="effect1_dropShadow_85_301"/>
<feBlend mode="normal" in="SourceGraphic" in2="effect1_dropShadow_85_301" result="shape"/>
</filter>
</defs>
</svg>
