<svg width="26" height="25" viewBox="0 0 26 25" fill="none" xmlns="http://www.w3.org/2000/svg">
<g clip-path="url(#clip0_85_342)">
<path d="M23.6494 0H2.3457C1.3252 0 0.5 0.805664 0.5 1.80176V23.1934C0.5 24.1895 1.3252 25 2.3457 25H23.6494C24.6699 25 25.5 24.1895 25.5 23.1982V1.80176C25.5 0.805664 24.6699 0 23.6494 0ZM7.91699 21.3037H4.20605V9.37012H7.91699V21.3037ZM6.06152 7.74414C4.87012 7.74414 3.9082 6.78223 3.9082 5.5957C3.9082 4.40918 4.87012 3.44727 6.06152 3.44727C7.24805 3.44727 8.20996 4.40918 8.20996 5.5957C8.20996 6.77734 7.24805 7.74414 6.06152 7.74414ZM21.8037 21.3037H18.0977V15.5029C18.0977 14.1211 18.0732 12.3389 16.1689 12.3389C14.2402 12.3389 13.9473 13.8477 13.9473 15.4053V21.3037H10.2461V9.37012H13.8008V11.001H13.8496C14.3428 10.0635 15.5537 9.07227 17.3555 9.07227C21.1104 9.07227 21.8037 11.543 21.8037 14.7559V21.3037Z" fill="white"/>
</g>
<defs>
<clipPath id="clip0_85_342">
<rect width="25" height="25" fill="white" transform="translate(0.5)"/>
</clipPath>
</defs>
</svg>
