<svg xmlns="http://www.w3.org/2000/svg" viewBox="0 0 446.85 89.51"><defs><style>.cls-1{fill:#ec1b3b;}.cls-2{fill:#772e74;}.cls-3{fill:#ec1b3a;}</style></defs><g id="Capa_2" data-name="Capa 2"><g id="Capa_1-2" data-name="Capa 1"><path class="cls-1" d="M278.75,87l-51,.1c-2.52,0-5,0-7.57,0-.69,0-1.62.27-1.65-1s.88-1,1.6-1c2.69,0,5.38-.07,8.07,0,1.32,0,1.76-.44,1.76-1.74,0-15.23,0-30.45-.07-45.68a14.18,14.18,0,0,0-.49-3.48c-1.79-7.18-7.15-10-15.29-8.16a24.59,24.59,0,0,0-18.7,22.5c-.58,11.67-.22,23.38-.31,35.07,0,1.31.63,1.51,1.71,1.49,2.69,0,5.39,0,8.08,0,.78,0,1.58,0,1.53,1.11s-.81.91-1.46.91H172.44c-.67,0-1.39,0-1.41-1s.65-1,1.36-1c2.61,0,5.22-.08,7.82,0,1.57.06,2.2-.32,2.2-2.06q-.07-39.5,0-79c0-1.76-.66-2.09-2.2-2-2.52.11-5.05,0-7.57,0-.72,0-1.62.19-1.6-1s1-1,1.64-1c6.9,0,13.79,0,20.69,0,1.77,0,1.82.84,1.82,2.17,0,11.27,0,22.54,0,33.81v3.73c.85-1.44,1.35-2.26,1.82-3.09,8.05-14.4,26.5-15.77,37.1-10,6.25,3.38,8.54,9,8.57,15.75.06,13.3.08,26.59,0,39.88,0,2.31.61,3,2.91,2.9,4-.19,8.08-.12,12.11,0,1.44,0,1.86-.46,1.86-1.88q-.06-27.14,0-54.26c0-1.54-.62-1.82-1.94-1.78-2.61.07-5.22,0-7.83,0-.78,0-1.58,0-1.57-1.11s.88-1,1.63-1c6.89,0,13.79,0,20.69,0,2.12,0,1.72,1.31,1.72,2.52q0,26.88,0,53.75c0,4.17-.78,3.72,3.69,3.78.92,0,1.84.09,2.76.13A1.31,1.31,0,0,1,278.75,87Z"/><path class="cls-1" d="M101.43,72.63l-3,5.16c-8.58,14.86-28.18,13.45-37.22,5.75-3-2.54-4.1-6.1-4.66-9.81a44,44,0,0,1-.42-6.28c0-12.54-.09-25.07,0-37.6,0-2.29-.65-2.9-2.82-2.73-2.34.18-4.7,0-7.06,0-.82,0-1.54-.06-1.5-1.17s.73-1,1.42-1c7.06,0,14.13,0,21.19,0,2,0,1.49,1.41,1.5,2.46,0,13.8,0,27.59,0,41.38a41.64,41.64,0,0,0,.52,8c2.17,10.83,11.66,12,18.09,8.58,7.95-4.21,11.88-11.33,13.4-19.95a28.23,28.23,0,0,0,.37-4.77c0-10.43,0-20.86.07-31.29,0-1.69-.38-2.43-2.22-2.32-2.43.14-4.87,0-7.31,0-.82,0-1.83.21-1.79-1.11s1.1-1,1.87-1c6.56,0,13.12.08,19.68-.06,2.09,0,2.47.71,2.46,2.6q-.09,27.12,0,54.24c0,3.62-.47,3.18,3.21,3.23h4.29c.68,0,1.1.25,1.1,1s-.49,1-1.15,1c-6.22,0-12.45,0-18.67,0-1.25,0-1.26-.78-1.25-1.68q0-4.92,0-9.84C101.58,74.74,101.5,74,101.43,72.63Z"/><path class="cls-1" d="M.13,76.75c0-2.36-.09-4.72,0-7.07,0-.94-.77-2.5.82-2.73,1.33-.19,1.2,1.37,1.54,2.23a49.73,49.73,0,0,0,2.94,6.69A21.74,21.74,0,0,0,27.29,86.94c5.25-.62,8.84-3.82,9.78-8.74,1.17-6.18-.38-10-5.61-12.68-6-3.08-12.67-4.45-18.94-6.86a17.62,17.62,0,0,1-8.2-6C-.93,45.36,0,29.72,14.67,24.52a25.14,25.14,0,0,1,17.77.56c2.36.89,4.66,2,7.14.12.69-.52,1.46-.09,1.46,1q0,7.06,0,14.13c0,.49,0,1-.65,1.17s-1.06-.32-1.3-.9c-.91-2.17-1.68-4.41-2.75-6.49-4.47-8.7-14.12-11.59-22.75-6.88a10.12,10.12,0,0,0-5.66,9.66c0,4.16,2.26,6.64,5.81,8.34C19,47.73,24.64,49.12,30.13,51A45.84,45.84,0,0,1,38.7,54.6c10.36,6,12.22,18.43,3.86,27.13-6.5,6.77-14.69,8.38-23.66,6.82a92.39,92.39,0,0,1-10.68-3c-2.12-.64-4.21-1-6.08.94-1,1-2,.82-2-.94C.14,82.63.13,79.69.13,76.75Z"/><path class="cls-1" d="M124.55,76.71c0-2.77,0-5.55,0-8.33,0-.53-.25-1.26.56-1.46s1.18.42,1.41,1.08a41.62,41.62,0,0,0,4,9c5.07,7.78,12.39,10.82,21.42,9.89a10.34,10.34,0,0,0,9.48-8.44c1.16-6.24-.34-10-5.43-12.8-5.28-2.85-11.17-4.14-16.8-6.09-4.29-1.49-8.27-3.38-10.81-7.38-5.44-8.57-2.73-24.36,12.68-28.23a26,26,0,0,1,16.32,1.37c2.11.85,4.2,1.65,6.43,0,1-.75,1.66-.11,1.65,1.18,0,4.54,0,9.09,0,13.63,0,.54.19,1.25-.66,1.4s-1.16-.45-1.4-1.12a42.85,42.85,0,0,0-3.8-8.22c-4.85-7.64-16.76-9.33-23.76-3.59-4.39,3.6-5.64,13.08,1.77,16.45,5.54,2.53,11.4,4.06,17.12,6a46.28,46.28,0,0,1,8.11,3.42c11.63,6.7,12.45,21.61,1.56,29.65-6.32,4.66-13.45,5.87-21.08,4.45a98.18,98.18,0,0,1-10.68-3c-2.14-.65-4.21-1-6.09.93-1.05,1.07-2,.75-2-1,0-3,0-5.89,0-8.84Z"/><path class="cls-2" d="M278.75,87c0-.59-.05-1.19-.08-1.78,3.26-.52,6.54-.11,9.81-.15,1.44,0,1.84-.45,1.84-1.87q-.07-27.12,0-54.24c0-1.34-.42-1.75-1.72-1.71-2.69.08-5.38,0-8.07,0-.78,0-1.55,0-1.58-1.09s.71-1.13,1.52-1.13c7.06,0,14.13,0,21.19,0,2,0,1.55,1.32,1.55,2.41q0,16.15,0,32.3c0,7.74,0,15.48,0,23.21,0,1.61.38,2.24,2.09,2.14,2.52-.14,5,0,7.57,0,.7,0,1.58-.23,1.66,1s-.72,1.12-1.5,1.13l-33.55.12A2.22,2.22,0,0,1,278.75,87Z"/><path class="cls-2" d="M305.78,9.1a9,9,0,0,1-8.91,9.07c-5.4.09-9.47-3.75-9.52-9a9.22,9.22,0,0,1,18.43-.1Z"/><path class="cls-3" d="M257.93,9A9,9,0,0,1,267.12.23a9.11,9.11,0,0,1,9,9.2,8.92,8.92,0,0,1-9.25,8.69A8.74,8.74,0,0,1,257.93,9Z"/><path class="cls-2" d="M445.28,47c-6.91-19.5-34.33-35-57.16-13.6-12.43,11.67-13.89,27.44-4.32,40.78,2.53,3.54,2.56,3.78.11,7.37a16.74,16.74,0,0,1-2.1,2.51c-3,3-6.67,3.53-10.52,2.47-3.62-1-5-4-5.51-7.44a29.73,29.73,0,0,1-.36-4.52c0-15.14,0-30.29-.06-45.43,0-1.55.39-2,1.95-2,5.64.08,11.28.05,16.91,0,.89,0,2.27.53,2.22-1.17,0-1.49-1.3-1-2.12-1-5.3,0-10.61-.2-15.89,0-2.7.13-3.16-.79-3.1-3.23.16-6.86.06-13.73.06-20.95a13.08,13.08,0,0,1-10.66,1.57c-1.92-.53-2.26-.11-2.23,1.72.1,6.23,0,12.45.12,18.68,0,1.64-.41,2.17-2.11,2.14-4.79-.1-9.59,0-14.38,0-3.52,0-3.52,0-3.52-3.42V.87a12.89,12.89,0,0,1-10.68,1.58c-2.19-.62-2.13.25-2.12,1.83.06,5.81,0,11.61,0,17.42,0,3.29,0,3.29-3.18,3.3-2.18,0-4.37,0-6.56,0-.8,0-1.78-.22-1.74,1.15s1.07,1,1.83,1a67.24,67.24,0,0,0,6.81,0c2.31-.2,2.9.57,2.89,2.88-.11,14.64-.08,29.28,0,43.92,0,4.94,1.51,9.35,5.86,12.19,8.74,5.71,21.93,3.53,28.34-4.6,9.62,11.51,27.46,10.37,33.84-2.43,1,.8,1.8,1.5,2.65,2.17,13.27,10.5,30.25,10.45,43.46-.14C445,72.33,449.5,58.94,445.28,47ZM343.11,86.92C337.32,87.51,334,85,333,79.26a30.07,30.07,0,0,1-.38-5c0-14.87,0-29.74-.08-44.61,0-2.06.63-2.5,2.54-2.45,4.95.12,9.91.15,14.87,0,2-.06,2.72.42,2.69,2.59-.14,7.82-.06,15.63-.06,24.91.19,6.51-.25,14.49.24,22.47C353.09,81.27,347.79,86.45,343.11,86.92Zm87-14.3c-2.86,12-8.88,15.5-22.43,14.07-5.7-.61-9.45-3.86-11.72-9.07-3-6.88-3.33-14.15-3.39-21.48,0-6.06.28-12.09,2-18a18.73,18.73,0,0,1,27.87-10.51,16.28,16.28,0,0,1,7,9.83A68.85,68.85,0,0,1,430.14,72.62Z"/></g></g></svg>