<svg width="345" height="38" viewBox="0 0 345 38" fill="none" xmlns="http://www.w3.org/2000/svg">
<g clip-path="url(#clip0_85_351)">
<path d="M4.40426 7.30774L12.6989 28.2077L21.2138 7.30774H25.6181L12.6255 38.2924L0 7.30774H4.40426Z" fill="#2C2C2C"/>
<path d="M42.2072 13.2269H31.5636V19.5846H41.9136V23.3115H31.5636V32.1538H42.2072V35.9538H27.5264V9.5H42.2072V13.2269Z" fill="#2C2C2C"/>
<path d="M56.4477 24.6269L64.6689 35.8808H59.7509L52.1902 25.1385H51.4562V35.9538H47.4189V9.5H52.1168C55.6402 9.5 58.136 10.1577 59.7509 11.4731C61.4392 12.9346 62.32 14.8346 62.32 17.2462C62.32 19.1462 61.8062 20.7538 60.7051 22.0692C59.6775 23.4577 58.2094 24.2615 56.4477 24.6269ZM51.4562 21.6308H52.7041C56.5211 21.6308 58.4296 20.1692 58.4296 17.3192C58.4296 14.6154 56.5945 13.2269 52.9243 13.2269H51.5296V21.6308H51.4562Z" fill="#2C2C2C"/>
<path d="M64.6689 22.5808C64.6689 18.8539 66.0636 15.6385 68.7796 13.0077C71.4955 10.3039 74.7987 8.9885 78.6158 8.9885C82.4328 8.9885 85.6626 10.3039 88.3785 13.0077C91.0945 15.7116 92.4892 18.927 92.4892 22.727C92.4892 26.527 91.0945 29.7423 88.3785 32.3731C85.6626 35.0039 82.3594 36.3923 78.469 36.3923C75.019 36.3923 71.936 35.2231 69.22 32.8116C66.137 30.2539 64.6689 26.8193 64.6689 22.5808ZM68.7062 22.6539C68.7062 25.577 69.6604 27.9885 71.6424 29.8885C73.6243 31.7885 75.8998 32.7385 78.469 32.7385C81.2583 32.7385 83.6073 31.7885 85.5158 29.8885C87.4243 27.9154 88.3785 25.577 88.3785 22.8C88.3785 19.95 87.4243 17.6116 85.5158 15.7116C83.6073 13.8116 81.3317 12.8616 78.5424 12.8616C75.753 12.8616 73.4775 13.8116 71.5689 15.7116C69.6604 17.5385 68.7062 19.877 68.7062 22.6539ZM84.6349 2.41158L77.5881 7.16158L75.6796 5.55389L81.1849 0.0731201L84.6349 2.41158Z" fill="#2C2C2C"/>
<path d="M95.3521 35.9539V7.6731L114.731 27.8423V9.50002H118.695V37.5616L99.3159 17.3923V35.9539H95.3521Z" fill="#2C2C2C"/>
<path d="M127.723 9.5H123.686V35.9538H127.723V9.5Z" fill="#2C2C2C"/>
<path d="M152.314 10.8884V15.6384C149.965 13.7384 147.616 12.7153 145.12 12.7153C142.404 12.7153 140.055 13.6653 138.22 15.6384C136.312 17.6115 135.431 19.9499 135.431 22.7999C135.431 25.5769 136.385 27.9153 138.22 29.8153C140.129 31.7153 142.404 32.6653 145.12 32.6653C146.515 32.6653 147.763 32.4461 148.717 32.0076C149.304 31.7884 149.818 31.4961 150.405 31.0576C150.993 30.6922 151.653 30.1807 152.241 29.6692V34.4923C149.965 35.8076 147.543 36.3922 145.047 36.3922C141.23 36.3922 138 35.0769 135.358 32.4461C132.715 29.8153 131.32 26.5999 131.32 22.7999C131.32 19.4384 132.421 16.4422 134.697 13.8115C137.486 10.5961 141.01 8.9884 145.414 8.9884C147.763 8.9884 150.038 9.6461 152.314 10.8884Z" fill="#2C2C2C"/>
<path d="M172.867 29.5231H161.489L158.553 35.9538H154.222L167.362 7.81921L180.06 35.9538H175.656L172.867 29.5231ZM171.252 25.7961L167.288 16.8077L163.177 25.7961H171.252Z" fill="#2C2C2C"/>
<path d="M191.952 38.2923L198.192 5.33459L207.294 25.8692L216.763 5.33459L222.121 38.2923H218.011L215.148 17.7577L207.22 34.9307L199.586 17.7577L196.063 38.2923H191.952Z" fill="#2C2C2C"/>
<path d="M229.315 9.5H225.278V35.9538H229.315V9.5Z" fill="#2C2C2C"/>
<path d="M238.27 9.5V32.1538H246.125V35.9538H234.307V9.5H238.27Z" fill="#2C2C2C"/>
<path d="M253.245 9.5V32.1538H261.026V35.9538H249.208V9.5H253.245Z" fill="#2C2C2C"/>
<path d="M281.212 29.5231H269.834L266.898 35.9538H262.567L275.706 7.81921L288.405 35.9538H284.001L281.212 29.5231ZM279.597 25.7961L275.633 16.8077L271.522 25.7961H279.597Z" fill="#2C2C2C"/>
<path d="M299.269 24.6269L307.49 35.8808H302.572L295.012 25.0654H294.277V35.8808H290.24V9.5H294.938C298.462 9.5 300.957 10.1577 302.572 11.4731C304.26 12.9346 305.141 14.8346 305.141 17.2462C305.141 19.1462 304.627 20.7538 303.526 22.0692C302.499 23.4577 301.031 24.2615 299.269 24.6269ZM294.277 21.6308H295.525C299.342 21.6308 301.251 20.1692 301.251 17.3192C301.251 14.6154 299.416 13.2269 295.746 13.2269H294.351V21.6308H294.277Z" fill="#2C2C2C"/>
<path d="M324.74 13.2269H314.097V19.5846H324.447V23.3115H314.097V32.1538H324.74V35.9538H310.06V9.5H324.74V13.2269Z" fill="#2C2C2C"/>
<path d="M344.34 13.4462L341.11 15.3462C340.522 14.3231 339.935 13.5923 339.348 13.3C338.761 12.9346 338.027 12.7154 337.146 12.7154C336.045 12.7154 335.091 13.0077 334.357 13.6654C333.622 14.25 333.255 15.0539 333.255 16.0039C333.255 17.3193 334.21 18.3423 336.118 19.1462L338.761 20.2423C340.89 21.1193 342.504 22.1423 343.459 23.3846C344.486 24.6269 344.927 26.1616 344.927 27.9885C344.927 30.4 344.119 32.4462 342.504 33.9808C340.89 35.5885 338.834 36.3923 336.412 36.3923C334.136 36.3923 332.228 35.7346 330.686 34.3462C329.218 32.9577 328.264 31.0577 327.897 28.5731L331.934 27.6962C332.081 29.2308 332.448 30.3269 332.888 30.9116C333.696 32.0808 334.944 32.5923 336.485 32.5923C337.733 32.5923 338.761 32.1539 339.568 31.35C340.376 30.5462 340.816 29.45 340.816 28.2077C340.816 27.6962 340.743 27.2577 340.596 26.8193C340.449 26.3808 340.229 26.0154 339.935 25.65C339.642 25.2846 339.201 24.9193 338.761 24.6269C338.247 24.3346 337.733 24.0423 337.072 23.75L334.503 22.6539C330.833 21.1193 329.071 18.8539 329.071 15.9308C329.071 13.9577 329.805 12.2769 331.347 10.9616C332.888 9.64617 334.797 8.91541 337.072 8.91541C340.229 8.98848 342.578 10.45 344.34 13.4462Z" fill="#2C2C2C"/>
</g>
<defs>
<clipPath id="clip0_85_351">
<rect width="345" height="38" fill="white"/>
</clipPath>
</defs>
</svg>
