<svg xmlns="http://www.w3.org/2000/svg" viewBox="0 0 418.87 239.54"><defs><style>.cls-1{fill:#2b2e83;}.cls-2{fill:#64b04b;}.cls-3{fill:#313c8d;}.cls-4{fill:#f39130;}.cls-5{fill:#a1daf7;}.cls-6{fill:#fff;}.cls-7{fill:#e53426;}.cls-8{fill:#1d1d1b;}.cls-9{fill:#fefcfc;}.cls-10{fill:#f9f9f9;}.cls-11{fill:#fafafa;}</style></defs><g id="Capa_2" data-name="Capa 2"><g id="Capa_1-2" data-name="Capa 1"><path class="cls-1" d="M164.68,224.11c0-1.94,0-3.88,0-5.82,0-.93,0-.95,1-1,1.44,0,2.88,0,4.33,0,.72,0,.91.25.9.94,0,3.38,0,6.76,0,10.15,0,.36,0,.72,0,1.08-.16,2.69,2.14,4,4.45,3.34a2.84,2.84,0,0,0,2.11-2.08,7.16,7.16,0,0,0,.21-2q0-5.2,0-10.42c0-1,0-1,.94-1,1.49,0,3,0,4.46,0,.58,0,.8.2.79.79,0,3.83,0,7.66-.05,11.5a8.17,8.17,0,0,1-2.19,5.67,7.87,7.87,0,0,1-5.18,2.32,19.26,19.26,0,0,1-5.92-.3c-3.48-.75-5.71-3.64-5.81-7.51-.05-1.89,0-3.79,0-5.68Z"/><path class="cls-1" d="M207.42,227.33c0-3,0-6,0-8.93,0-1.05,0-1.07,1-1.07H223c.92,0,.93,0,.94,1s0,1.63,0,2.44-.24.92-.93.91c-2.53,0-5.05,0-7.58,0-1.85,0-1.85,0-1.83,1.86,0,.13,0,.27,0,.4-.09.65.18.87.83.85,1.76,0,3.52,0,5.28,0,.9,0,1.8,0,2.7,0,.5,0,.78.15.73.69v.13c-.05,1,.41,2.32-.18,3s-1.94.23-2.95.25c-1.85.05-3.7,0-5.55,0-.62,0-.91.16-.87.83s0,1.35,0,2c0,1,0,1.05,1,1.06h8.92c.44,0,.66.14.65.62,0,1.13,0,2.25,0,3.38,0,.39-.16.58-.56.58-.18,0-.36,0-.54,0h-14.6c-1.09,0-1.11,0-1.11-1.11C207.41,233.28,207.42,230.3,207.42,227.33Z"/><path class="cls-1" d="M376.22,223c-1.7.11-3.4.21-5.1.34-.54,0-.64-.28-.81-.68a2.91,2.91,0,0,0-3.74-1.76,1.58,1.58,0,0,0-1.23,1.28c-.1.53.35,1.09,1.12,1.34s1.75.45,2.62.66a24.28,24.28,0,0,1,4.24,1.34,5.51,5.51,0,0,1,3.62,4.81,6.28,6.28,0,0,1-2.95,6,8.57,8.57,0,0,1-3.94,1.3,17,17,0,0,1-5.91-.31c-3.16-.78-4.85-2.85-5.26-6.57l5.45-.34c.27,0,.38.17.45.4a7,7,0,0,0,.23.78,3.43,3.43,0,0,0,4.81,1.82,1.86,1.86,0,0,0,1.12-1.71,1.82,1.82,0,0,0-1.06-1.61,8.82,8.82,0,0,0-2.3-.79,25.35,25.35,0,0,1-3.5-1,10.85,10.85,0,0,1-2.05-1,5.22,5.22,0,0,1-.14-8.77,6.35,6.35,0,0,1,2.32-1.06,16.38,16.38,0,0,1,7.5,0A5.57,5.57,0,0,1,376.22,223Z"/><path class="cls-1" d="M51.4,217.33c2.8,0,5.59,0,8.39,0,1,0,1,0,1,1s0,1.8,0,2.71c0,1.27.16,1.27-1.21,1.27H55.77c-1.25,0-1.26,0-1.26,1.22q0,6,0,12c0,.23,0,.46,0,.68,0,1.14,0,1.14-1.21,1.15H49.5c-1.21,0-1.2.09-1.2-1.16,0-3.79,0-7.58,0-11.36,0-.8.33-1.8-.18-2.36s-1.53-.17-2.32-.2c-1,0-2,0-3,0-.56,0-.82-.14-.8-.76,0-1.12,0-2.25,0-3.38,0-.68.25-.83.87-.82C45.72,217.34,48.56,217.33,51.4,217.33Z"/><path class="cls-1" d="M288.57,227.39c0-3,0-6,0-9.07,0-1,0-1,.95-1,1.39,0,2.79,0,4.19,0,1.06,0,1.07,0,1.07,1.16,0,1.58,0,3.16,0,4.73v13.54c0,.37-.15.6-.56.6h-5.14c-.53,0-.51-.39-.51-.76,0-1.62,0-3.25,0-4.87Z"/><path class="cls-1" d="M142.35,236.15c-.14-.51-1-.56-1.44-.9l-.23-.15c-1-.64-1-.64-.36-1.7a8.75,8.75,0,0,0,.84-1.84,13.87,13.87,0,0,0,.39-6.94,8.58,8.58,0,0,0-7.51-7.43,15.41,15.41,0,0,0-5,0,8.87,8.87,0,0,0-7.71,7.43,15.05,15.05,0,0,0-.18,4.44,9,9,0,0,0,6.84,8.27,13.57,13.57,0,0,0,7.21-.1,2.36,2.36,0,0,1,2.43.46,12.22,12.22,0,0,0,3.17,1.89c.29-.55.6-1,.83-1.57S142.53,236.77,142.35,236.15ZM135,231.09a4.88,4.88,0,0,1-1.61-.91,7.45,7.45,0,0,0-1.43-.74c-.5-.19-.87-.17-1.06.41a.61.61,0,0,1-.05.12c-.67,1.4-.67,1.39.68,2.17.27.16.57.27.72.58a3.23,3.23,0,0,1-3.48-.69,3.51,3.51,0,0,1-1-1.58,10.52,10.52,0,0,1-.11-5.86,3.71,3.71,0,0,1,3.75-2.88,3.59,3.59,0,0,1,3.85,2.9A11,11,0,0,1,135,231.09Z"/><path class="cls-1" d="M266.54,236.76c-.91-1.76-1.78-3.54-2.75-5.27a5.69,5.69,0,0,0-3.06-2.9,3.77,3.77,0,0,1,.54-.33c3-1.14,4.21-3.2,3.86-6.31a4.86,4.86,0,0,0-3.77-4.27,11.4,11.4,0,0,0-2.54-.32l-10.68,0c-.95,0-1,0-1,1,0,3,0,6,0,9.06s0,6,0,9.06c0,.65.11,1,.88,1,1.53-.06,3.07,0,4.6,0,.57,0,.81-.19.79-.78,0-1.13,0-2.26,0-3.38v-3.89a2.49,2.49,0,0,1,2.86,1.49c1.05,1.94,2.11,3.88,3.15,5.82.22.4.41.75,1,.74,2.06,0,4.12,0,6.13,0A.58.58,0,0,0,266.54,236.76Zm-9-11.6c-.21.06-.44.07-.66.11a7,7,0,0,1-3.32,0,22.16,22.16,0,0,1-.09-3.36c0-.42.24-.52.61-.51h1.48v0a13.2,13.2,0,0,1,1.88.13,1.68,1.68,0,0,1,1.51,1.78A1.75,1.75,0,0,1,257.5,225.16Z"/><path class="cls-1" d="M100.7,236.74q-3.49-9.36-7-18.72a1,1,0,0,0-1.12-.7c-1.58,0-3.15,0-4.73,0-1.22,0-1.22,0-1.63,1.1q-3.33,8.85-6.64,17.7a1.91,1.91,0,0,0-.26,1.23c1.83,0,3.67,0,5.51,0a.77.77,0,0,0,.84-.69c.16-.65.39-1.29.56-1.94a.84.84,0,0,1,1-.72c1.85,0,3.69,0,5.54,0a.75.75,0,0,1,.86.64c.18.7.44,1.37.63,2.07a.74.74,0,0,0,.84.65c1.89,0,3.77,0,5.6,0A.71.71,0,0,0,100.7,236.74Zm-12.87-7.08,2-6.59.3,0c.64,2.12,1.29,4.24,2,6.47A23.14,23.14,0,0,1,87.83,229.66Z"/><path class="cls-1" d="M338.27,236.93q-3.54-9.48-7.07-19a.89.89,0,0,0-1-.64c-1.72,0-3.43.05-5.14,0-.73,0-1,.3-1.23.93-2.24,6-4.52,12-6.77,18.07-.12.31-.41.63-.08,1.05,1.76,0,3.56,0,5.36,0a.76.76,0,0,0,.86-.64c.2-.69.44-1.37.61-2.07a.76.76,0,0,1,.86-.65c1.85,0,3.69,0,5.54,0a.84.84,0,0,1,1,.72c.15.65.39,1.29.56,1.94a.84.84,0,0,0,1,.71c1.84,0,3.69,0,5.59,0A1.88,1.88,0,0,0,338.27,236.93Zm-12.94-7.24,2.16-7.08c.76,2.5,1.42,4.68,2.12,7A30.24,30.24,0,0,1,325.33,229.69Z"/><path class="cls-2" d="M31.49,197.35c-3.19-.06-6.4.26-9.58-.24-10.64-1.67-17.64-7.56-20.52-18-1.7-6.14-2-12.4,0-18.53C4.87,150.31,12.12,144.26,22.61,142a7.93,7.93,0,0,1,1.62-.1H65.31c-.51-1.6-1-3-1.42-4.51a29.35,29.35,0,0,1-.41-13.66,20.76,20.76,0,0,1,3.3-7.5c1.76-2.51,3.53-5,5.33-7.5a3.15,3.15,0,0,0,.64-2,39.71,39.71,0,0,1,3.49-17.22c3.77-8,10.09-12.86,18.69-14.8a38.17,38.17,0,0,1,8-.88,88.55,88.55,0,0,1,34,6,60.22,60.22,0,0,1,11.34,6,3,3,0,0,1,1.11.94l-1.11.35a80.58,80.58,0,0,0-13.25,5,19.06,19.06,0,0,0-3.77,2.39,5.23,5.23,0,0,0-1.53,1.86,2,2,0,0,0,1.42,2.91,11.67,11.67,0,0,0,4.71,0c9.35-1.47,18.64-3.19,27.85-5.38a90.4,90.4,0,0,0,26.43-11.47,18.92,18.92,0,0,0,2.61-1.93,3,3,0,0,0,1.11-2.22c.34-5.58.89-11.14,1.69-16.67a89.23,89.23,0,0,1,3.07-14.26,32.82,32.82,0,0,1,5.43-9.76,55.37,55.37,0,0,1,15.25-14.21,41.35,41.35,0,0,1,13.38-4.93,48.23,48.23,0,0,1,11.55-1.08,35.1,35.1,0,0,1,17.87,5.05,4,4,0,0,0,.36.17c.4-.14.49-.52.68-.81A56.2,56.2,0,0,1,269,14.3a25.37,25.37,0,0,1,20.39-7.47A2,2,0,0,0,291,6.3,25.72,25.72,0,0,1,311.4.19c6.28.67,11.89,3.16,17.19,6.45a49.82,49.82,0,0,1,5.85,4.14,34.6,34.6,0,0,1,12.45,21.81,23.47,23.47,0,0,1,.05,7,1.49,1.49,0,0,0,.7,1.47,64.34,64.34,0,0,1,6.55,6.45,47.66,47.66,0,0,1,11.14,21.21,41,41,0,0,1,.55,13.84c-2,16.29-9.58,29.52-21.59,40.49-6.7,6.11-13.51,12.08-20.33,18a1,1,0,0,0-.49.77h1.42q17.13,0,34.24,0c4.55,0,9.11.26,13.66.14,5.59-.14,11.18-.26,16.77-.11a62,62,0,0,1,8.6.84,21.49,21.49,0,0,1,11,5.65,28.19,28.19,0,0,1,9.4,18.49,35.08,35.08,0,0,1-.42,11.43,22.87,22.87,0,0,1-14.39,17,40.42,40.42,0,0,1-16.68,2.8c-.14-.56.2-.94.49-1.32a18.12,18.12,0,0,0,3.17-6.44,1.89,1.89,0,0,1,.78-1.35,27.59,27.59,0,0,1,3.72-.66c7.82-1.82,12.81-7.14,14.22-15.19A17.78,17.78,0,0,0,401.22,155a19.11,19.11,0,0,0-10.48-3q-39.37.11-78.75,0h-1.62a1.77,1.77,0,0,1-1.8-1.16c-1.06-2.49-2.09-5-3.26-7.43A1.66,1.66,0,0,1,306,141c5.32-3.73,10.6-7.51,15.79-11.41a126.39,126.39,0,0,0,13.67-11.26c5.28-5.28,10.7-10.48,14.75-16.87a47.89,47.89,0,0,0,7.05-20.12c1-8.34-1.83-15.53-6.45-22.19A60.21,60.21,0,0,0,338.4,46.22a3.86,3.86,0,0,1-1.58-4,30.47,30.47,0,0,0,.23-8.48,23.8,23.8,0,0,0-8-14.64A35.94,35.94,0,0,0,314,10.36c-6.77-1.81-12.86-.47-18,4.4a2.29,2.29,0,0,1-2.09.62,33.73,33.73,0,0,0-9.83-.09c-5.53.91-9.38,3.77-10.93,9.31a4.06,4.06,0,0,1-2.52,2.75,75.52,75.52,0,0,0-18.33,12.13,104.29,104.29,0,0,0-11.46,11.66c-.42.5-.85,1.51-1.63,1.06s-.2-1.33,0-2a25.61,25.61,0,0,1,5.21-8.48c3.32-3.93,7.09-7.43,10.78-11,.81-.79.84-.92-.19-1.38a32.38,32.38,0,0,0-11.38-2.72c-9.64-.53-17.76,3.05-25,9.12-6.43,5.39-10.33,12.3-12.51,20.28A70.94,70.94,0,0,0,204,70.17a64.79,64.79,0,0,0,.38,11.32,3.85,3.85,0,0,1-1.6,3.71,63.61,63.61,0,0,1-8.43,6.1c-10.21,6.12-20.81,11.39-32.45,14.27A110.28,110.28,0,0,1,144,108.15c-6.52.5-13,.89-19.57.75a24.86,24.86,0,0,1-8.5-1.41c-3.78-1.45-4.57-3.94-2.31-7.34a17.42,17.42,0,0,1,3.71-4.09,60.86,60.86,0,0,1,15-8.59,11.75,11.75,0,0,1,1.69-.49,91.78,91.78,0,0,0-15.62-3.91c-6.58-1-13.1-1.14-19.52,1.05A23.7,23.7,0,0,0,84.66,96.71a34.68,34.68,0,0,0-3.47,14.49,5,5,0,0,1-1.63,3.3,30.73,30.73,0,0,0-5.63,8.86c-3.5,8.7-2.41,17,2,25.11.26.48.55.93.83,1.4.89,1.48.75,1.79-.93,1.81-10.63.17-21.27.17-31.89-.09-6-.15-11.88.31-17.83.15-4.37-.12-7.87,2-10.8,5.12-3.6,3.82-6.19,8.21-6.09,13.6a18.89,18.89,0,0,0,15.37,18.27,21.26,21.26,0,0,1,3.09.29,1.63,1.63,0,0,1,.76,1,28,28,0,0,0,2.93,6.42C31.53,196.74,31.72,197,31.49,197.35Z"/><path class="cls-3" d="M31.49,197.35a33.23,33.23,0,0,1-3.75-8.17,5.59,5.59,0,0,1-1-3.46c-.36-4.54-.58-9.1.73-13.56,2.26-7.71,7.64-12.23,15.08-14.55a28.74,28.74,0,0,1,8.66-1.28q84,0,167.92,0c4.46,0,8.93.15,13.39.07,12.18-.2,24.35,0,36.53-.08a3,3,0,0,0,3-1.6,1.52,1.52,0,0,0,.16-1.3c-.5-1.39-3.09-2.81-4.53-2.41a156.23,156.23,0,0,1-18.65,4,145.29,145.29,0,0,1-16.55,1.44c-13,.45-25.71-1.31-38.4-3.81a496.09,496.09,0,0,1-50.94-13.11c-9.78-3-19.48-6.31-29.36-9a45.17,45.17,0,0,0-9-1.79c-7.14-.46-15.92,3.16-16.06,14.24a55.81,55.81,0,0,0,.44,9.58,2.57,2.57,0,0,1,0,1.07,1.38,1.38,0,0,1-1.07,1.1,1.23,1.23,0,0,1-1.31-.52c-4-5.18-7.84-10.49-9.32-17.07a17.89,17.89,0,0,1,4.86-17.3,21.5,21.5,0,0,1,3.6-3.27,2.74,2.74,0,0,0,1.26-2.51,50.59,50.59,0,0,1,.28-8c1.79-10.47,8.85-17.31,19.4-18.78a52.93,52.93,0,0,1,13.19,0c.87.09,1.68.37,1.73,1.37s-.75,1.37-1.61,1.49a18.1,18.1,0,0,0-8.92,3.61c-4.42,3.54-6,8.24-5.34,13.71.26,2.25,1.88,3.63,3.89,4.5a23.52,23.52,0,0,0,7,1.53,134.83,134.83,0,0,0,20.39.5c15.28-.68,30.19-3.3,44.31-9.51a113.49,113.49,0,0,0,20.37-12c2.71-2,5.36-4,8-6a2.06,2.06,0,0,0,.89-2.32,60.3,60.3,0,0,1-1.24-14.12c.32-8,1.93-15.56,6.14-22.45a35.53,35.53,0,0,1,15.9-13.8A45.44,45.44,0,0,1,247.1,30a14.74,14.74,0,0,1,1.76,0c.48,0,1.14-.07,1.31.46s-.42.84-.83,1.1a29.69,29.69,0,0,1-3.3,1.86,28.16,28.16,0,0,0-8.74,6.49c-2.1,2.32-3.79,4.86-4,8.1a22.41,22.41,0,0,0,1,6.8c.62,2.41,1.16,4.82,1.56,7.28.05.33,0,.82.36.94s.64-.29.89-.53c2.12-2.1,4.21-4.21,6.32-6.32,3.92-3.92,7.78-7.91,11.78-11.75,5.34-5.12,11.21-9.52,18.16-12.28a33.33,33.33,0,0,1,26.1.41,18.88,18.88,0,0,0-8.21-5.62A30.91,30.91,0,0,0,281.81,25a9.9,9.9,0,0,1-1.88-.26c-.73-.17-1.46-.43-1.47-1.32s.7-1.19,1.4-1.43a15.8,15.8,0,0,1,2.64-.61,42.61,42.61,0,0,1,16.91.45c4.92,1.21,9.34,3.34,12.47,7.54a21.26,21.26,0,0,1,3.24,6.81,2.86,2.86,0,0,1,.05,1.2A21.9,21.9,0,0,0,309.07,19a28.36,28.36,0,0,0-2.45-2.33c-.56-.48-1.09-1.06-.66-1.87a1.61,1.61,0,0,1,1.89-.68,12.49,12.49,0,0,1,2.33.69c5.52,2,10.72,4.51,15,8.6,4,3.77,6.37,8.3,6.48,13.83A21.3,21.3,0,0,1,330.31,45c-.6,1.62-.55,1.65.86,2.66a53.39,53.39,0,0,1,14.56,15.09A32.12,32.12,0,0,1,351,78.65a29.86,29.86,0,0,1-3,14c-2.68,5.65-6.51,10.51-10.57,15.16a132.08,132.08,0,0,1-21.56,19.83A146.82,146.82,0,0,1,297.66,139c-1.37.72-1.4.77-.49,2.09a45.33,45.33,0,0,1,6.57,14.17c.21.78.6,1.17,1.41,1.12.41,0,.82,0,1.22,0h62.92c11.45,0,19.56,6.34,22.33,17.49a40.22,40.22,0,0,1,.51,13.84,2.22,2.22,0,0,1-.59,1.49,5,5,0,0,0-.49,1.53,22.11,22.11,0,0,1-3.94,7.44,23.8,23.8,0,0,1-8.53,5.82A28.85,28.85,0,0,1,368,206H50.22a27.12,27.12,0,0,1-9-1.39,19.45,19.45,0,0,1-8.75-6.13Z"/><path class="cls-4" d="M391.54,189.17a40.08,40.08,0,0,0,.55-9.15,26,26,0,0,0-5.39-15.58A20,20,0,0,0,373.33,157a33.26,33.26,0,0,0-5-.29H305.42c-.36,0-.72,0-1.08,0s-.71-.13-.83-.64A42.89,42.89,0,0,0,296,140.15a.67.67,0,0,1-.2-.59c1.46-.8,3-1.63,4.52-2.48a136.09,136.09,0,0,0,34.74-27.3,88.06,88.06,0,0,0,10.69-13.93,30.77,30.77,0,0,0,4.75-17.23,31.61,31.61,0,0,0-5.46-16.2A53.82,53.82,0,0,0,330.3,47.54c-1.11-.76-1.15-.43-.61-1.89A22.3,22.3,0,0,0,331.21,36a18.15,18.15,0,0,0-4.66-10.71,30.42,30.42,0,0,0-8.26-6.49,50.17,50.17,0,0,0-10.2-4.28,4.44,4.44,0,0,0-.52-.15c-.57-.11-1.1-.1-1.39.52s.08,1,.47,1.28a29.87,29.87,0,0,1,4,4,21.85,21.85,0,0,1,5,16c-.05.67-.18,1.34-.29,2.12a1.68,1.68,0,0,1-.42-1c-1.5-7.18-5.88-11.79-12.68-14.24A34.27,34.27,0,0,0,293,21.29a46.32,46.32,0,0,0-12.49.89,5.76,5.76,0,0,0-1.16.35.93.93,0,0,0-.65,1.07,1,1,0,0,0,.94.82l2.56.19A30,30,0,0,1,295,28.2a16.76,16.76,0,0,1,5.46,4.9,1.44,1.44,0,0,1-1-.26,33.84,33.84,0,0,0-15.7-2.76,34.78,34.78,0,0,0-12,3.14,55.73,55.73,0,0,0-13.58,9c-2.55,2.22-4.93,4.63-7.32,7q-6.93,6.94-13.91,13.84a2,2,0,0,1-1.19.78c-.09-.72-.18-1.42-.27-2.12-.39-3-1.27-5.8-1.91-8.7a15.92,15.92,0,0,1-.45-6.3,10.68,10.68,0,0,1,1.49-4A25.61,25.61,0,0,1,245,33.5a45.94,45.94,0,0,0,5.2-3,8.55,8.55,0,0,0-3-.11A41.8,41.8,0,0,0,227,36.78c-8.43,5.36-13.49,13.1-15.75,22.74a57,57,0,0,0-1.06,18.69,43.75,43.75,0,0,0,1.05,6.53,1.41,1.41,0,0,1-.6,1.7,196.41,196.41,0,0,1-17.09,12.14,100.53,100.53,0,0,1-34.09,13.22,142.36,142.36,0,0,1-20,2.52c-5.27.3-10.55.31-15.82.11A58.72,58.72,0,0,1,112,113.17a15.1,15.1,0,0,1-2.56-.86,6.49,6.49,0,0,1-4.15-6.51c.12-7.71,4.38-13.25,11.86-15.34a17.05,17.05,0,0,1,3.18-.63c.78-.07,1.23-.48,1.21-1a1.07,1.07,0,0,0-1.07-1c-6.31-.71-12.6-.92-18.72,1.23-7.55,2.66-11.92,8.11-13.67,15.81a31.26,31.26,0,0,0-.53,9.55,2.25,2.25,0,0,1-1.13,2.32,22.84,22.84,0,0,0-5.12,4.79c-4.09,5.19-4.92,11-3.08,17.23a37.4,37.4,0,0,0,5.86,11.36c.95,1.32,2,2.6,2.91,3.91a1,1,0,0,0,1.26.5,1,1,0,0,0,.61-1.22c-.11-1-.25-2.06-.35-3.09a37.69,37.69,0,0,1,.08-9.84,13,13,0,0,1,8.58-10.75,18,18,0,0,1,10.08-.89,157.48,157.48,0,0,1,18.13,4.9c11.18,3.49,22.32,7.09,33.6,10.27,12.63,3.55,25.37,6.61,38.26,9,5.05.94,10.1,1.86,15.21,2.43a141.26,141.26,0,0,0,22.81.71,149.66,149.66,0,0,0,28.94-4.43c1.31-.34,2.6-.73,3.91-1.07.38-.1.75-.3,1.17,0a13.08,13.08,0,0,1,3,2.11,1.52,1.52,0,0,1,.27,2.19,13.71,13.71,0,0,1-1,1.41,1.29,1.29,0,0,1-1.17.53c-.59,0-1.18,0-1.76,0H50.87a26.31,26.31,0,0,0-15.17,4.59,19.4,19.4,0,0,0-8.46,13.9,34.61,34.61,0,0,0,.48,13.56,1.85,1.85,0,0,1,0,.41c-7.56.69-14.93-5.31-17.34-11.52a23.67,23.67,0,0,1-1.55-6.4,15.05,15.05,0,0,1,1.45-7.62,23.16,23.16,0,0,1,8-9.83,13.75,13.75,0,0,1,7.73-2.46c1.8,0,3.61-.07,5.41-.06,2.26,0,4.51-.21,6.76-.16,9.1.2,18.21.14,27.32.26,1.57,0,3.15.2,4.72.15,2.25-.07,4.5-.26,6.79-.19.07-.58-.32-.88-.55-1.23a30.6,30.6,0,0,1-4.84-13.21A27.3,27.3,0,0,1,76,118.62a39.52,39.52,0,0,1,4.13-5.33,2.64,2.64,0,0,0,.69-1.82,36.29,36.29,0,0,1,3.38-14.63,24.23,24.23,0,0,1,16.61-13.72,39.51,39.51,0,0,1,13.67-.88,86.29,86.29,0,0,1,19.82,4.49,2.08,2.08,0,0,1,.35.2c-.42.53-1.08.43-1.61.66s-1.1.4-1.64.63A57.54,57.54,0,0,0,117,96.76a16,16,0,0,0-3.57,4.21,6.84,6.84,0,0,0-.54,1.24,3.3,3.3,0,0,0,1.61,4.26,12.14,12.14,0,0,0,4.32,1.49,63.89,63.89,0,0,0,14.82.39c.18,0,.36,0,.54,0,4.28-.06,8.54-.4,12.8-.81a117.47,117.47,0,0,0,12.8-1.87,78.19,78.19,0,0,0,15.28-4.9,141.22,141.22,0,0,0,18.08-9.15,62.05,62.05,0,0,0,10-7.33,2.17,2.17,0,0,0,.81-2.09,62,62,0,0,1-.54-9.43c.21-7.51,1.18-14.88,4-21.94a38.39,38.39,0,0,1,13.39-17.29A37.48,37.48,0,0,1,234.65,27a33,33,0,0,1,12.87-.26,35,35,0,0,1,9.06,2.92c.06.5-.32.68-.57.9a123,123,0,0,0-11.13,11.24,32.19,32.19,0,0,0-4.72,6.9,7.8,7.8,0,0,0-.92,3.72c.64-.73,1.12-1.24,1.56-1.78a99.64,99.64,0,0,1,11.78-11.91,81.52,81.52,0,0,1,13.48-9.47,41.59,41.59,0,0,1,5-2.46,2.3,2.3,0,0,0,1.57-1.68,19.71,19.71,0,0,1,.88-2.55c1.72-4.13,5-6.4,9.22-7.37a26.05,26.05,0,0,1,9.4-.34l.27,0c.86,0,1.71.37,2.53.24s1.26-1.08,1.92-1.62a18.34,18.34,0,0,1,12.78-4.23,23.54,23.54,0,0,1,8.6,2.15,40.42,40.42,0,0,1,12.1,8.29,23.64,23.64,0,0,1,7,13,24,24,0,0,1,.18,7.13c-.15,1.11-.15,2.25-.37,3.35a2.1,2.1,0,0,0,1,2.3A62.81,62.81,0,0,1,344,50.63a49.58,49.58,0,0,1,11.29,15.55,30.47,30.47,0,0,1,2.43,8.95c.53,4.85-.35,9.51-1.62,14.13a47.24,47.24,0,0,1-10,18.36c-1.47,1.72-3,3.39-4.55,5-1.42,1.45-2.77,3-4.2,4.41a103.41,103.41,0,0,1-9.45,8.29c-7.12,5.68-14.51,11-22,16.18a.94.94,0,0,0-.39,1.41q1.75,3.89,3.4,7.81a1.19,1.19,0,0,0,1.34.84c.45,0,.9,0,1.35,0,26.39,0,52.78.11,79.16-.07,7.77-.06,15.78,5.55,18.34,12.6a17.92,17.92,0,0,1,.09,11.92c-2.28,7.12-7.07,11.45-14.43,12.86C393.7,189.06,392.61,189.07,391.54,189.17Z"/><path class="cls-5" d="M311.41,17.93a1.93,1.93,0,0,1,.49,0,34.89,34.89,0,0,1,12.48,7.9A16.3,16.3,0,0,1,329.25,39a21.69,21.69,0,0,1-1.53,6.29c-.16.41-.35.82-.5,1.25-.35,1-.26,1.23.61,1.78a53.47,53.47,0,0,1,8.39,6.6,41.71,41.71,0,0,1,10,13.82c3.66,8.61,2.91,17-1.55,25.1a77.64,77.64,0,0,1-10.32,13.86,130.2,130.2,0,0,1-36.29,28.53,156.13,156.13,0,0,1-28.78,11.95,148.83,148.83,0,0,1-21.75,4.76c-4.64.66-9.31,1-14,1.23a129.17,129.17,0,0,1-14.19-.18,150.11,150.11,0,0,1-16.07-2c-10.93-1.86-21.75-4.21-32.48-7-12.18-3.11-24.21-6.77-36.19-10.56-7.17-2.28-14.31-4.65-21.61-6.49-3.45-.87-6.93-1.75-10.53-1.52a18.16,18.16,0,0,0-10.79,4.14,14.69,14.69,0,0,0-4.91,9,28.91,28.91,0,0,0-.36,8.61,12.14,12.14,0,0,1,0,1.35.26.26,0,0,1-.34-.08,36,36,0,0,1-5.79-10.8c-2.37-7.74-.3-13.93,5.82-19.11a19.54,19.54,0,0,1,2.61-1.93,1.81,1.81,0,0,0,1-2.12,24.37,24.37,0,0,1-.18-6.21,23.84,23.84,0,0,1,2.7-9.83,18.19,18.19,0,0,1,11.29-8.86,30.35,30.35,0,0,1,10.31-1.18c0,.43-.41.42-.65.54A16.53,16.53,0,0,0,103.47,104a12.44,12.44,0,0,0,0,3.9,8.15,8.15,0,0,0,4.13,5.72,18.71,18.71,0,0,0,6.43,2,113.13,113.13,0,0,0,14,.92,138.94,138.94,0,0,0,15-.43,124.87,124.87,0,0,0,36.27-8,108.83,108.83,0,0,0,21.51-11.85,253.62,253.62,0,0,0,23-18.24c6.08-5.32,11.93-10.88,17.68-16.55.38-.37.78-.73,1.24-1.18a12.29,12.29,0,0,1,.66,3.17,57.19,57.19,0,0,0,7.76,20.2,39.58,39.58,0,0,0,25.95,18.19,111,111,0,0,0,12.81,2c3.82.36,7.64.55,11.46.77a1.49,1.49,0,0,1,1,.21,10.6,10.6,0,0,1-.61,2.86c-.09.29-.27.65,0,.87a2.48,2.48,0,0,0,1.37.49c.3,0,.34-.38.43-.63a19.88,19.88,0,0,0,.95-5.3,26.12,26.12,0,0,0-.22-4c0-.5-.24-.8-.75-.64s-1.2,0-1.18.79.1,1.71.11,2.57,0,.92-.94.88c-2-.08-4-.17-5.94-.32-3.37-.26-6.74-.51-10.08-1-5.77-.81-11.49-1.83-16.8-4.37A38.1,38.1,0,0,1,252.53,82,57.41,57.41,0,0,1,245,60.88a4.42,4.42,0,0,1,1.5-4.48c3.92-3.66,7.52-7.66,11.48-11.29a58.89,58.89,0,0,1,12.93-9.28A32.51,32.51,0,0,1,286.62,32a33.54,33.54,0,0,1,14.62,3.92,8.81,8.81,0,0,0,1,.49c.94.36,1.63-.2,1.45-1.2a7.12,7.12,0,0,0-.92-2.25A18.58,18.58,0,0,0,295.15,26a30,30,0,0,0-6.58-2.43c-.16,0-.37,0-.49-.31a40.5,40.5,0,0,1,5.62,0A27.64,27.64,0,0,1,304.1,26c5.44,2.74,8.33,7.24,9.19,13.18a31.34,31.34,0,0,1,.23,5.39c0,.6.11,1.11.79,1.21a1,1,0,0,0,1.19-.85.61.61,0,0,1,.05-.12,28.58,28.58,0,0,0,2.16-11.07,23.37,23.37,0,0,0-5.08-14.26C312.25,19,311.86,18.49,311.41,17.93Z"/><path class="cls-6" d="M284,171.89c1.12-.26,2.25-.49,3.36-.78,1.67-.44,3.34-.92,5-1.38a1.27,1.27,0,0,1,.45,1.08c.33,6.43,1,12.86.35,19.31-.11,1.12,0,2.25,0,3.38,0,.83.37,1.24,1.22,1.24h6.22c1,0,1.13-.56,1.05-1.42-.26-2.91-.42-5.83-.44-8.77a138.7,138.7,0,0,1,.89-14.83c.18-1.69.14-1.66-1.61-1.75-1.12-.06-2.34.42-3.34-.5l1.31-1a12.75,12.75,0,0,0,4.39-5.21c.23-.53.51-.82,1.11-.73a5,5,0,0,0,.67,0h63.86a24.3,24.3,0,0,1,6.95.9c5.82,1.73,9.51,5.67,11.46,11.31a28.12,28.12,0,0,1,.66,15.74c-1.45,6.3-5.6,10.22-11.59,12.31a24,24,0,0,1-8,1.34H50.57A23.49,23.49,0,0,1,42.85,201,16.65,16.65,0,0,1,32.4,190.78a23.56,23.56,0,0,1-1.65-8.71,31.3,31.3,0,0,1,.75-8.19,16.36,16.36,0,0,1,8.26-10.54,23.65,23.65,0,0,1,10.63-2.77H266.52c-.07.53-.47.71-.75,1-1.89,1.6-3.81,3.18-5.61,4.89a16,16,0,0,0-3.79,5.53,12.44,12.44,0,0,0-.69,6.52,40.31,40.31,0,0,0,3.05,10c.74-1.05.86-2.29,1.6-3.21.48.37.3.9.29,1.38,0,2.3,0,4.6,0,6.9,0,.83.29,1.28,1.17,1.26,4.86-.12,9.74.29,14.59-.25a9.21,9.21,0,0,0,5.09-2c3.59-3.11,6.32-6.72,6-11.83a15.28,15.28,0,0,0-2.74-7.25C284.4,173,283.9,172.56,284,171.89Z"/><path class="cls-5" d="M271.73,149.52c2.44-.85,4.66-1.59,6.85-2.4a146,146,0,0,0,14.16-6.07c1.08-.53,1.1-.53,1.83.46a43.31,43.31,0,0,1,6.83,14,7.26,7.26,0,0,1-1.08,6.18,13.9,13.9,0,0,1-5.15,4.48,35.64,35.64,0,0,1-10.87,3.54,72.12,72.12,0,0,0-8.73,1.75c-6.61,2.05-12.2,5.54-16.16,11.35-.11.15-.21.3-.41.33-2.59-6.33-1.92-10.6,2.07-14.83a83.91,83.91,0,0,1,7-6.16,55.46,55.46,0,0,0,4.36-4,11.88,11.88,0,0,0,1.93-2.59,3.41,3.41,0,0,0-.46-4.13A17.75,17.75,0,0,0,271.73,149.52Z"/><path class="cls-5" d="M213.25,84.22a28.31,28.31,0,0,1-.9-4.92,56.74,56.74,0,0,1-.26-12c.62-7.74,2.72-15,7.57-21.2a34.7,34.7,0,0,1,16.42-11.43,36.71,36.71,0,0,1,4.86-1.38,3.07,3.07,0,0,1-1.19,1.08,27.54,27.54,0,0,0-6.64,7.06,13.29,13.29,0,0,0-2,9.17A82.82,82.82,0,0,0,233,59.16c.44,2,.64,4.09.88,6.15.07.64-.31,1-.7,1.38-2.52,2.51-5.15,4.92-7.84,7.25-3.68,3.2-7.4,6.34-11.1,9.5C214,83.67,213.69,83.88,213.25,84.22Z"/><path class="cls-7" d="M284,171.89a20.33,20.33,0,0,1,3.33,6.14,10.77,10.77,0,0,1-.38,8,18.28,18.28,0,0,1-4.42,6.1,11.37,11.37,0,0,1-7.79,3c-4.6.09-9.2,0-13.8.07-.69,0-.82-.26-.8-.89.08-3,.11-6,.16-9.05a22.37,22.37,0,0,1,8.46-8.48c.44.35.2.83.2,1.25q0,4.46,0,8.91c0,1.57.25,1.78,1.74,1.46a12.13,12.13,0,0,0,7.65-5.55,2,2,0,0,0-.15-2.38,13.71,13.71,0,0,0-5.11-4.69c-.38-.2-.89-.27-1-.82a31.86,31.86,0,0,1,9.49-2.77A9.23,9.23,0,0,1,284,171.89Z"/><path class="cls-7" d="M297.13,167.47l4.59.05c1.06,0,1.1,0,1,1-.41,3.17-.68,6.35-.9,9.54a89.75,89.75,0,0,0,.28,15.38c.21,2.07.12,1.65-1.52,1.66-2.21,0-4.41,0-6.62,0-1.26,0-1.29,0-1.26-1.23.06-2.25.16-4.5.23-6.75.19-5.82-.22-11.62-.52-17.42Z"/><path class="cls-6" d="M272.13,175a13.75,13.75,0,0,1,6.63,5.69,1.71,1.71,0,0,1,.17,2c-2,3.13-4.63,5.48-8.44,6.14-.31.06-.63.05-.94.08-.57,0-.79-.2-.81-.78a95,95,0,0,1,0-11.32A13.59,13.59,0,0,1,272.13,175Z"/><path class="cls-3" d="M291.11,48.7a16,16,0,0,1-2.69,8.45A22.88,22.88,0,0,1,283,63.08c-2.57,2-5.29,3.75-8,5.51-1.11.7-1.09.7-.59,1.85.35.83.69,1.66,1,2.52s.14.77-.74,1.09c-.55.2-.9.21-1.13-.46A26.32,26.32,0,0,0,254.54,56.3a1.15,1.15,0,0,1-.74-1.87c.19-.31.45-.21.71-.16a20.16,20.16,0,0,1,3.89,1.13c1.13.46,1,.38,1.54-.55a42.83,42.83,0,0,1,8-10.49,19.66,19.66,0,0,1,8.42-4.94,13.5,13.5,0,0,1,9.36.84A8.78,8.78,0,0,1,291.11,48.7Z"/><path class="cls-3" d="M313.82,70.27a16,16,0,0,1-2.46,7.87A24.78,24.78,0,0,1,304,85.57c-2.15,1.49-4.34,2.92-6.51,4.38-1,.7-1.05.49-.53,1.65.37.82.69,1.67,1,2.52s.27.85-.66,1.22c-.62.25-.95.24-1.19-.5a23.76,23.76,0,0,0-2.16-4.8,26.13,26.13,0,0,0-16.66-12.42c-1.12-.27-1.15-.36-.9-1.45.14-.6.44-.71,1-.59a29,29,0,0,1,3.76,1.12c1,.4,1,.39,1.53-.54A43,43,0,0,1,290,66.22a20.09,20.09,0,0,1,8.75-5.42,13.56,13.56,0,0,1,9.87.9A9,9,0,0,1,313.82,70.27Z"/><path class="cls-7" d="M348.94,167.52a20.1,20.1,0,0,1,8.13,1.4,10.93,10.93,0,0,1,6.58,7.72,18.72,18.72,0,0,1,.17,8.71,11.44,11.44,0,0,1-8.29,9,20.15,20.15,0,0,1-10.54.38c-6.19-1.39-9.4-5.76-10-11.57a18,18,0,0,1,.2-5.52,11.45,11.45,0,0,1,8.92-9.44A17.73,17.73,0,0,1,348.94,167.52Z"/><path class="cls-7" d="M255.69,194.86l-7.35.34c-.86,0-1.72,0-2.57.13a.82.82,0,0,1-1-.63c-.47-1.32-1-2.61-1.46-3.93a1,1,0,0,0-1.06-.79c-2.7-.13-5.4-.14-8.1,0a1,1,0,0,0-1.06.8c-.42,1.28-.9,2.55-1.34,3.82a.8.8,0,0,1-.87.65c-3-.09-6-.14-9-.37-.17-.47.13-.75.29-1q6.42-12.36,11.8-25.21a1.81,1.81,0,0,1,2.09-1.32,28.49,28.49,0,0,0,3.92,0,1.71,1.71,0,0,1,1.85,1.15q6,11.56,12.13,23.1Z"/><path class="cls-7" d="M136,195.18c-2.28,0-4.48,0-6.68,0-.77,0-1.54,0-2.3,0s-.77-.22-.71-.8c.14-1.34.2-2.69.34-4a114.59,114.59,0,0,0-.11-20.79c0-.05,0-.09,0-.14-.19-1.93-.19-1.94,1.7-1.93,3.74,0,7.48.07,11.22.07,5,0,8.16,2.88,10.78,6.65a5.06,5.06,0,0,1,.67,3.78,15.47,15.47,0,0,1-3.54,7.77,6,6,0,0,1-4,2.08,28,28,0,0,1-6.6.08c-1.14-.13-1.23-.06-1.18,1.15a33.84,33.84,0,0,0,.37,4.71A3,3,0,0,1,136,195.18Z"/><path class="cls-7" d="M155.2,167.5a1.87,1.87,0,0,1,1.23-.18h15.82c1.23,0,1.24,0,1.57,1.14.54,1.81,1.07,3.62,1.61,5.49a3.8,3.8,0,0,1-1.77,0,37.17,37.17,0,0,0-7.82,0c-.64.06-.88.25-.86.88a19.57,19.57,0,0,1-.07,2.3c-.08.74.26.88.92.94a41.72,41.72,0,0,0,8.36-.18,1.44,1.44,0,0,1,.84,0c.24.31,0,.67,0,1-.24,1.65-.54,3.29-.77,4.94-.09.59-.35.75-.9.66a32.91,32.91,0,0,0-6.87-.26c-1.12,0-1.12,0-1.2,1.09-.05.72-.07,1.45-.18,2.16s.18.84.8.87c2.75.14,5.49.31,8.23.48l.74.06c-.36,1.73-1,3.31-1.51,4.92s-.56,1.72-2.34,1.6c-4.77-.32-9.54-.4-14.32-.31a3.49,3.49,0,0,1-1.36-.09C156.18,185.87,156.52,176.67,155.2,167.5Z"/><path class="cls-7" d="M76.14,189.1c-.65,2-1.31,4-2,6-.16.49-.46.56-.93.51a141.11,141.11,0,0,0-15.39-.43,2.26,2.26,0,0,1-1.31-.13,117.25,117.25,0,0,0-.06-27.58,2.22,2.22,0,0,1,1.23-.15H73.55c1.26,0,1.15-.25,1.56,1.13.54,1.81,1,3.63,1.58,5.5a4.07,4.07,0,0,1-1.9,0,36.6,36.6,0,0,0-7.69,0c-.57.06-.81.24-.82.8,0,1-.36,2.14,0,2.93s1.71.36,2.6.47a35.36,35.36,0,0,0,6.34-.21,2.4,2.4,0,0,1,1.16,0c-.33,2-.67,4-1,6-.08.55-.34.67-.82.59a32.88,32.88,0,0,0-6.87-.26c-1.19,0-1.21,0-1.25,1.18,0,.9-.36,2,0,2.64s1.67.29,2.54.37c2.06.2,4.14.27,6.2.4A1.43,1.43,0,0,1,76.14,189.1Z"/><path class="cls-7" d="M332.8,167.38c-.38,1.29-.76,2.53-1.09,3.79s-.61,2.45-.85,3.68c-.13.65-.37.93-1.07.87-1.44-.11-2.88-.16-4.32-.23-1.2-.05-1.22-.05-1.17,1.14.19,5.68.4,11.36.6,17,.06,1.76.11,1.49-1.5,1.5-2.44,0-4.87,0-7.31,0-1.16,0-1.17,0-1.14-1.2q.26-8.33.52-16.64c0-.18,0-.36,0-.54,0-1.58.28-1.48-1.41-1.4s-3.42.2-5.13.35c-.65.06-.86-.15-.87-.8a29.19,29.19,0,0,1,.75-6.71c.15-.71.44-.93,1.18-.88,6,.38,12.08.34,18.12.17,1.35,0,2.7-.15,4.05-.22A3.7,3.7,0,0,1,332.8,167.38Z"/><path class="cls-7" d="M92.42,167.66a118,118,0,0,0-.94,12.41c-.1,2.17.22,4.32.21,6.49,0,.58.24.8.82.75,1.61-.15,3.23-.24,4.84-.41,1.92-.2,3.81-.53,5.83-.94-.45,1.95-1,3.69-1.33,5.5-.15.93-.39,1.85-.46,2.79-.06.79-.42,1-1.12.94-1.54,0-3.07,0-4.6,0H83.36c-1.27,0-1.29,0-1.22-1.23a163.81,163.81,0,0,0,0-19.19c-.12-2.12-.31-4.23-.49-6.33-.06-.59,0-.92.75-.91,3.15,0,6.31,0,9.46,0A2.7,2.7,0,0,1,92.42,167.66Z"/><path class="cls-7" d="M218.89,188.44c-1.11,2.26-2.19,4.42-3.24,6.6-.24.5-.58.49-1,.37a31.67,31.67,0,0,1-4.06-1.47,24.75,24.75,0,0,1-7.78-5.06,10.3,10.3,0,0,1-1-13.79,18.24,18.24,0,0,1,5-4.56,32.86,32.86,0,0,1,7-3.37c.46-.16.84-.27,1.17.24,1.36,2.11,2.75,4.21,4.13,6.32a2.55,2.55,0,0,1-1.28.59,20.05,20.05,0,0,0-5.11,2.45c-1.49,1.09-2.69,2.39-2.61,4.45a5.09,5.09,0,0,0,1.47,3.39,12.41,12.41,0,0,0,5,3Z"/><path class="cls-7" d="M195.22,171.17c-.25.49-.7.53-1,.72A10.11,10.11,0,0,0,191.4,174a3.72,3.72,0,0,0-.22,5.05c.74,1,1.54,2,2.37,2.94a7.81,7.81,0,0,1-.75,10.73,16.8,16.8,0,0,1-4.29,2.78,1.53,1.53,0,0,1-1.52,0c-2.25-1.24-4.52-2.43-6.77-3.65-.23-.13-.56-.21-.55-.54s.43-.37.71-.44a6.71,6.71,0,0,0,3.2-1.66,4,4,0,0,0,.85-5,12.09,12.09,0,0,0-1.78-2.54,17.24,17.24,0,0,1-1.83-2.5c-1.8-2.76-1.36-5.32.55-7.73a12.5,12.5,0,0,1,6.19-3.92,1,1,0,0,1,.89.1Z"/><path class="cls-7" d="M48.91,180.44a4.42,4.42,0,0,1-4.59,4.44,4.48,4.48,0,0,1-4.43-4.63,4.58,4.58,0,0,1,4.62-4.48A4.53,4.53,0,0,1,48.91,180.44Z"/><path class="cls-7" d="M379.09,180.2a4.51,4.51,0,1,1-4.5-4.53A4.44,4.44,0,0,1,379.09,180.2Z"/><path class="cls-8" d="M288.16,52.78A5.86,5.86,0,0,1,287,55.62a23,23,0,0,1-6.7,7c-2.15,1.55-4.36,3-6.62,4.43-.46.29-.81.49-1.2-.14a32.4,32.4,0,0,0-6.66-7.41,1.6,1.6,0,0,1-.27-.46,1.29,1.29,0,0,1,.21-1.27c2.47-4.64,5.89-8.29,10.87-10.26A9,9,0,0,1,287,49.76C287.74,50.6,288.5,51.5,288.16,52.78Z"/><path class="cls-6" d="M288.16,52.78c-.4-2.62-3.14-5.41-7.35-5.65a9.72,9.72,0,0,0-4.72.93A21.47,21.47,0,0,0,265.58,59a1.12,1.12,0,0,1-.85-.34,33.37,33.37,0,0,0-3.31-2c-.05-.45.23-.72.4-1a41.65,41.65,0,0,1,7.43-9.73,20.11,20.11,0,0,1,5.54-3.81,11.74,11.74,0,0,1,10.06,0,7.11,7.11,0,0,1,4.2,7.84A5,5,0,0,1,288.16,52.78Z"/><path class="cls-8" d="M310.87,74.19a11.9,11.9,0,0,1-2.64,4.92,20.66,20.66,0,0,1-4.31,4c-2.47,1.87-5.09,3.52-7.67,5.25-.5.34-.75.27-1.06-.21a35.38,35.38,0,0,0-6.23-7,1.56,1.56,0,0,1-.65-1c-.27-.47,0-.88.19-1.26a21.81,21.81,0,0,1,10.55-10,9.24,9.24,0,0,1,10.73,2.28A3.34,3.34,0,0,1,310.87,74.19Z"/><path class="cls-6" d="M310.87,74.19c-.63-3.27-3.76-5.45-7-5.72a10.05,10.05,0,0,0-5.24.94,21.51,21.51,0,0,0-10.32,10.75.56.56,0,0,1-.72,0,17.63,17.63,0,0,0-3.09-1.91c-.52-.25-.47-.53-.23-1,2.64-4.6,5.71-8.85,10-12a13.44,13.44,0,0,1,8.63-3,12.24,12.24,0,0,1,4.57,1.08,7.13,7.13,0,0,1,4.29,7.42A5.86,5.86,0,0,1,310.87,74.19Z"/><path class="cls-6" d="M342.68,180.31a5.51,5.51,0,0,1,2.59-4.64c4-2.61,7.77-1.26,10.44,1.62a4.2,4.2,0,0,1,1,3.91,7.08,7.08,0,0,1-3.63,5.25,7.5,7.5,0,0,1-9.52-2.63A6.71,6.71,0,0,1,342.68,180.31Z"/><path class="cls-9" d="M238.9,177.27c1,2.23,1.88,4.17,2.84,6.32l-6-.51C236.78,181.13,237.75,179.35,238.9,177.27Z"/><path class="cls-6" d="M135.41,183.23a104.5,104.5,0,0,1,.45-11.87,26.25,26.25,0,0,1,6.66,3.68,2,2,0,0,1,.56,2.77,7.4,7.4,0,0,1-2.22,2.68A14.37,14.37,0,0,1,135.41,183.23Z"/><path class="cls-10" d="M280.22,54a1.49,1.49,0,0,1,1.63-1.55,1.6,1.6,0,0,1,1.6,1.63,1.71,1.71,0,0,1-1.69,1.6A1.59,1.59,0,0,1,280.22,54Z"/><path class="cls-11" d="M306.05,75.36a1.5,1.5,0,0,1-1.63,1.56,1.59,1.59,0,0,1-1.59-1.63,1.7,1.7,0,0,1,1.67-1.61A1.62,1.62,0,0,1,306.05,75.36Z"/></g></g></svg>