<svg width="572" height="436" viewBox="0 0 572 436" fill="none" xmlns="http://www.w3.org/2000/svg">
<path d="M0 291.907L95.25 346.489V237.326L0 182.744V291.907Z" fill="#54555F"/>
<path d="M286.82 19L381 73.5815L95.25 237.326L0 182.744L286.82 19Z" fill="#D8DEFF"/>
<path d="M381 182.744L95.25 346.489V237.326L381 73.5815V182.744Z" fill="#9A9FBC"/>
<path d="M572 291.907L476.75 346.489V237.326L572 182.744V291.907Z" fill="#54555F"/>
<path d="M380 73.5815L285.5 128L476.75 237.326L572 182.744L380 73.5815Z" fill="#D8DEFF"/>
<path d="M191 182.744L476.75 346.489V237.326L285.5 127L191 182.744Z" fill="#9A9FBC"/>
<path d="M286 0L209.5 43.5L286 87L362 43.5L286 0Z" fill="#8296FF"/>
<path d="M209 391.461L286 435V86.6856L209.856 44L209 391.461Z" fill="#586EE2"/>
<path d="M362 392.428L286 436V86.5717L362 43V392.428Z" fill="#203ED8"/>
<path d="M311.052 289.523C313.692 290.435 316.14 291.311 318.396 292.151C320.628 292.967 322.752 293.771 324.768 294.563C326.784 295.355 328.716 296.147 330.564 296.939C332.388 297.707 334.2 298.499 336 299.315L336 302.591C334.2 303.407 332.388 304.211 330.564 305.003C328.716 305.771 326.784 306.563 324.768 307.379C322.752 308.171 320.628 308.987 318.396 309.827C316.14 310.667 313.692 311.531 311.052 312.419L311.052 308.567C314.844 307.271 318.492 305.999 321.996 304.751C325.5 303.503 328.788 302.219 331.86 300.899C328.812 299.579 325.536 298.295 322.032 297.047C318.504 295.799 314.844 294.539 311.052 293.267L311.052 289.523ZM326.676 288.935C325.02 288.935 323.58 288.695 322.356 288.215C321.108 287.735 320.076 287.099 319.26 286.307C318.444 285.515 317.832 284.603 317.424 283.571C317.016 282.539 316.812 281.483 316.812 280.403C316.812 277.883 317.604 275.951 319.188 274.607C320.748 273.263 323.136 272.591 326.352 272.591C326.496 272.591 326.688 272.591 326.928 272.591C327.144 272.591 327.348 272.603 327.54 272.627L327.54 285.443C329.484 285.299 330.96 284.735 331.968 283.751C332.976 282.767 333.48 281.231 333.48 279.143C333.48 277.967 333.384 276.983 333.192 276.191C332.976 275.375 332.772 274.763 332.58 274.355L335.388 273.887C335.604 274.295 335.832 275.015 336.072 276.047C336.312 277.055 336.432 278.207 336.432 279.503C336.432 281.135 336.192 282.551 335.712 283.751C335.208 284.927 334.524 285.899 333.66 286.667C332.796 287.435 331.776 288.011 330.6 288.395C329.4 288.755 328.092 288.935 326.676 288.935ZM324.84 276.083C323.328 276.059 322.092 276.443 321.132 277.235C320.148 278.003 319.656 279.071 319.656 280.439C319.656 281.207 319.812 281.891 320.124 282.491C320.412 283.067 320.796 283.559 321.276 283.967C321.756 284.375 322.308 284.699 322.932 284.939C323.556 285.155 324.192 285.299 324.84 285.371L324.84 276.083ZM316.884 260.87C316.884 260.582 316.908 260.258 316.956 259.898C316.98 259.514 317.028 259.142 317.1 258.782C317.148 258.422 317.208 258.098 317.28 257.81C317.328 257.498 317.376 257.27 317.424 257.126L320.34 257.702C320.244 257.966 320.136 258.41 320.016 259.034C319.872 259.634 319.8 260.414 319.8 261.374C319.8 261.998 319.872 262.622 320.016 263.246C320.136 263.846 320.22 264.242 320.268 264.434L336 264.434L336 267.782L318.072 267.782C317.784 266.99 317.52 266.006 317.28 264.83C317.016 263.654 316.884 262.334 316.884 260.87ZM326.64 237.371C328.128 237.371 329.472 237.587 330.672 238.019C331.872 238.451 332.904 239.063 333.768 239.855C334.632 240.623 335.304 241.547 335.784 242.627C336.24 243.707 336.468 244.883 336.468 246.155C336.468 247.427 336.24 248.603 335.784 249.683C335.304 250.763 334.632 251.699 333.768 252.491C332.904 253.259 331.872 253.859 330.672 254.291C329.472 254.723 328.128 254.939 326.64 254.939C325.176 254.939 323.844 254.723 322.644 254.291C321.42 253.859 320.376 253.259 319.512 252.491C318.648 251.699 317.988 250.763 317.532 249.683C317.052 248.603 316.812 247.427 316.812 246.155C316.812 244.883 317.052 243.707 317.532 242.627C317.988 241.547 318.648 240.623 319.512 239.855C320.376 239.063 321.42 238.451 322.644 238.019C323.844 237.587 325.176 237.371 326.64 237.371ZM326.64 240.863C324.528 240.863 322.86 241.343 321.636 242.303C320.388 243.239 319.764 244.523 319.764 246.155C319.764 247.787 320.388 249.083 321.636 250.043C322.86 250.979 324.528 251.447 326.64 251.447C328.752 251.447 330.432 250.979 331.68 250.043C332.904 249.083 333.516 247.787 333.516 246.155C333.516 244.523 332.904 243.239 331.68 242.303C330.432 241.343 328.752 240.863 326.64 240.863ZM310.188 241.799L315.12 246.875L313.608 248.567L308.064 243.959L310.188 241.799ZM317.82 232.661C317.628 231.893 317.424 230.873 317.208 229.601C316.992 228.329 316.884 226.865 316.884 225.209C316.884 223.721 317.1 222.485 317.532 221.501C317.94 220.517 318.528 219.737 319.296 219.161C320.04 218.561 320.94 218.141 321.996 217.901C323.052 217.661 324.216 217.541 325.488 217.541L336 217.541L336 220.889L326.208 220.889C325.056 220.889 324.072 220.973 323.256 221.141C322.44 221.285 321.78 221.537 321.276 221.897C320.772 222.257 320.412 222.737 320.196 223.337C319.956 223.937 319.836 224.681 319.836 225.569C319.836 225.929 319.848 226.301 319.872 226.685C319.896 227.069 319.932 227.441 319.98 227.801C320.004 228.137 320.04 228.449 320.088 228.737C320.136 229.001 320.172 229.193 320.196 229.313L336 229.313L336 232.661L317.82 232.661ZM336 208.641L336 211.989L317.28 211.989L317.28 208.641L336 208.641ZM313.896 210.333C313.896 210.933 313.704 211.449 313.32 211.881C312.912 212.289 312.372 212.493 311.7 212.493C311.028 212.493 310.5 212.289 310.116 211.881C309.708 211.449 309.504 210.933 309.504 210.333C309.504 209.733 309.708 209.229 310.116 208.821C310.5 208.389 311.028 208.173 311.7 208.173C312.372 208.173 312.912 208.389 313.32 208.821C313.704 209.229 313.896 209.733 313.896 210.333ZM336.432 194.748C336.432 196.26 336.192 197.592 335.712 198.744C335.232 199.872 334.56 200.832 333.696 201.624C332.832 202.392 331.812 202.968 330.636 203.352C329.436 203.736 328.116 203.928 326.676 203.928C325.236 203.928 323.916 203.724 322.716 203.316C321.516 202.884 320.484 202.284 319.62 201.516C318.732 200.748 318.048 199.812 317.568 198.708C317.064 197.58 316.812 196.332 316.812 194.964C316.812 194.124 316.884 193.284 317.028 192.444C317.172 191.604 317.4 190.8 317.712 190.032L320.556 190.788C320.316 191.292 320.124 191.88 319.98 192.552C319.836 193.2 319.764 193.896 319.764 194.64C319.764 196.512 320.352 197.952 321.528 198.96C322.704 199.944 324.42 200.436 326.676 200.436C327.684 200.436 328.608 200.328 329.448 200.112C330.288 199.872 331.008 199.512 331.608 199.032C332.208 198.528 332.676 197.892 333.012 197.124C333.324 196.356 333.48 195.42 333.48 194.316C333.48 193.428 333.396 192.624 333.228 191.904C333.06 191.184 332.88 190.62 332.688 190.212L335.496 189.744C335.616 189.936 335.736 190.212 335.856 190.572C335.952 190.932 336.036 191.34 336.108 191.796C336.204 192.252 336.276 192.744 336.324 193.272C336.396 193.776 336.432 194.268 336.432 194.748ZM333.588 179.813C333.588 179.021 333.576 178.325 333.552 177.725C333.504 177.101 333.432 176.585 333.336 176.177L327.756 176.177C327.636 176.417 327.54 176.813 327.468 177.365C327.372 177.893 327.324 178.541 327.324 179.309C327.324 179.813 327.36 180.353 327.432 180.929C327.504 181.481 327.66 181.997 327.9 182.477C328.116 182.933 328.428 183.317 328.836 183.629C329.22 183.941 329.736 184.097 330.384 184.097C331.584 184.097 332.424 183.713 332.904 182.945C333.36 182.177 333.588 181.133 333.588 179.813ZM316.812 180.101C316.812 178.757 316.992 177.629 317.352 176.717C317.688 175.781 318.18 175.037 318.828 174.485C319.452 173.909 320.208 173.501 321.096 173.261C321.96 173.021 322.92 172.901 323.976 172.901L335.676 172.901C335.724 173.189 335.796 173.597 335.892 174.125C335.964 174.629 336.036 175.205 336.108 175.853C336.18 176.501 336.24 177.209 336.288 177.977C336.36 178.721 336.396 179.465 336.396 180.209C336.396 181.265 336.288 182.237 336.072 183.125C335.856 184.013 335.52 184.781 335.064 185.429C334.584 186.077 333.96 186.581 333.192 186.941C332.424 187.301 331.5 187.481 330.42 187.481C329.388 187.481 328.5 187.277 327.756 186.869C327.012 186.437 326.412 185.861 325.956 185.141C325.5 184.421 325.164 183.581 324.948 182.621C324.732 181.661 324.624 180.653 324.624 179.597C324.624 179.261 324.648 178.913 324.696 178.553C324.72 178.193 324.768 177.857 324.84 177.545C324.888 177.209 324.936 176.921 324.984 176.681C325.032 176.441 325.068 176.273 325.092 176.177L324.156 176.177C323.604 176.177 323.064 176.237 322.536 176.357C321.984 176.477 321.504 176.693 321.096 177.005C320.664 177.317 320.328 177.749 320.088 178.301C319.824 178.829 319.692 179.525 319.692 180.389C319.692 181.493 319.776 182.465 319.944 183.305C320.088 184.121 320.244 184.733 320.412 185.141L317.64 185.537C317.448 185.105 317.268 184.385 317.1 183.377C316.908 182.369 316.812 181.277 316.812 180.101Z" fill="#D8DEFF"/>
</svg>
