<svg width="30" height="32" viewBox="0 0 30 32" fill="none" xmlns="http://www.w3.org/2000/svg">
<path fill-rule="evenodd" clip-rule="evenodd" d="M15 31.0717C23.2843 31.0717 30 24.3559 30 16.0717C30 7.78738 23.2843 1.07166 15 1.07166C6.71573 1.07166 0 7.78738 0 16.0717C0 18.7619 0.708211 21.2867 1.94837 23.4698L0 31.0717L7.83735 29.2543C9.96576 30.4132 12.406 31.0717 15 31.0717ZM15 28.764C22.0098 28.764 27.6923 23.0814 27.6923 16.0717C27.6923 9.06189 22.0098 3.37935 15 3.37935C7.99023 3.37935 2.30769 9.06189 2.30769 16.0717C2.30769 18.7782 3.15482 21.2868 4.5984 23.3469L3.46154 27.6101L7.79992 26.5255C9.84574 27.9373 12.3263 28.764 15 28.764Z" fill="#BFC8D0"/>
<path fill-rule="evenodd" clip-rule="evenodd" d="M15 30C23.2843 30 30 23.2843 30 15C30 6.71573 23.2843 0 15 0C6.71573 0 0 6.71573 0 15C0 17.6902 0.708211 20.215 1.94837 22.3982L0 30L7.83735 28.1826C9.96576 29.3415 12.406 30 15 30ZM15 27.6923C22.0098 27.6923 27.6923 22.0098 27.6923 15C27.6923 7.99023 22.0098 2.30769 15 2.30769C7.99023 2.30769 2.30769 7.99023 2.30769 15C2.30769 17.7065 3.15482 20.2151 4.5984 22.2752L3.46154 26.5385L7.79992 25.4539C9.84574 26.8656 12.3263 27.6923 15 27.6923Z" fill="white"/>
<path d="M11.25 8.03606C10.8934 7.31973 10.3463 7.38315 9.79358 7.38315C8.80582 7.38315 7.26562 8.56631 7.26562 10.7683C7.26563 12.5729 8.06084 14.5484 10.7404 17.5035C13.3265 20.3553 16.7243 21.8306 19.5452 21.7804C22.3661 21.7302 22.9465 19.3027 22.9465 18.483C22.9465 18.1196 22.721 17.9383 22.5656 17.8891C21.6044 17.4277 19.8314 16.5681 19.428 16.4066C19.0246 16.2451 18.814 16.4636 18.683 16.5824C18.3172 16.931 17.5921 17.9584 17.3438 18.1895C17.0955 18.4206 16.7253 18.3037 16.5713 18.2163C16.0044 17.9888 14.4674 17.3052 13.2423 16.1176C11.7271 14.6488 11.6382 14.1435 11.3528 13.6937C11.1244 13.3338 11.292 13.113 11.3756 13.0165C11.702 12.6399 12.1528 12.0583 12.3549 11.7693C12.5571 11.4803 12.3966 11.0416 12.3003 10.7683C11.8862 9.59298 11.5353 8.60913 11.25 8.03606Z" fill="white"/>
</svg>
